<?xml version="1.0" encoding="iso-8859-1"?>
<!-- Generator: Adobe Illustrator 19.0.0, SVG Export Plug-In . SVG Version: 6.00 Build 0)  -->
<svg version="1.1" id="Capa_1" xmlns="http://www.w3.org/2000/svg" xmlns:xlink="http://www.w3.org/1999/xlink" x="0px" y="0px"
	 viewBox="0 0 442.686 442.686" style="enable-background:new 0 0 442.686 442.686;" xml:space="preserve">
<g id="XMLID_9_">
	<path id="XMLID_965_" d="M442.686,363.485L331.343,54.201l-51.4,142.777l-58.6-162.777l-58.6,162.777l-51.4-142.777L0,363.485
		h96.343v45h30v-45h80v25h30v-25h80v45h30v-45H442.686z M111.343,142.769L180,333.485h-53.657v-45h-30v45H42.686L111.343,142.769z
		 M316.343,288.485v45h-53.657l68.657-190.716L400,333.485h-53.657v-45H316.343z M238,313.485h-33.314l-26-72.223l42.657-118.493
		L264,241.262L238,313.485z"/>
</g>
<g>
</g>
<g>
</g>
<g>
</g>
<g>
</g>
<g>
</g>
<g>
</g>
<g>
</g>
<g>
</g>
<g>
</g>
<g>
</g>
<g>
</g>
<g>
</g>
<g>
</g>
<g>
</g>
<g>
</g>
</svg>
