<?xml version="1.0" encoding="iso-8859-1"?>
<!-- Generator: Adobe Illustrator 19.0.0, SVG Export Plug-In . SVG Version: 6.00 Build 0)  -->
<svg version="1.1" id="Capa_1" xmlns="http://www.w3.org/2000/svg" xmlns:xlink="http://www.w3.org/1999/xlink" x="0px" y="0px"
	 viewBox="0 0 420 420" style="enable-background:new 0 0 420 420;" xml:space="preserve">
<g id="XMLID_11_">
	<path id="XMLID_944_" d="M310.937,127C307.234,74.547,263.38,33,210,33s-97.234,41.547-100.937,94H0v260h420V127H310.937z
		 M390,283.81l-122.017-32.538c18.315-25.029,36.042-57.541,41.496-94.271H390V283.81z M138.804,134.195
		C138.804,94.938,170.743,63,210,63c39.257,0,71.196,31.938,71.196,71.195c0,62.81-49.907,117.251-71.213,137.627
		C188.666,251.496,138.804,197.208,138.804,134.195z M30,157h80.521c3.801,25.594,13.559,49.139,25.327,69.533L61.295,357H30V157z
		 M95.848,357l58.569-102.495c22.094,29.352,44.286,47.644,46.127,49.139l9.456,7.68l9.456-7.68
		c1.316-1.069,13.044-10.732,27.696-26.88L390,314.857V357H95.848z"/>
	<path id="XMLID_950_" d="M255,142c0-24.813-20.187-45-45-45s-45,20.187-45,45s20.187,45,45,45S255,166.814,255,142z M195,142
		c0-8.271,6.729-15,15-15s15,6.729,15,15s-6.729,15-15,15S195,150.271,195,142z"/>
</g>
<g>
</g>
<g>
</g>
<g>
</g>
<g>
</g>
<g>
</g>
<g>
</g>
<g>
</g>
<g>
</g>
<g>
</g>
<g>
</g>
<g>
</g>
<g>
</g>
<g>
</g>
<g>
</g>
<g>
</g>
</svg>
