<?xml version="1.0" encoding="iso-8859-1"?>
<!-- Generator: Adobe Illustrator 19.1.0, SVG Export Plug-In . SVG Version: 6.00 Build 0)  -->
<svg version="1.1" id="Capa_1" xmlns="http://www.w3.org/2000/svg" xmlns:xlink="http://www.w3.org/1999/xlink" x="0px" y="0px"
	 viewBox="0 0 440 440" style="enable-background:new 0 0 440 440;" xml:space="preserve">
<g id="XMLID_6_">
	<path id="XMLID_1001_" d="M270,130h-95V87.42c17.458-6.192,30-22.865,30-42.42c0-24.813-20.187-45-45-45s-45,20.187-45,45
		c0,19.555,12.541,36.228,30,42.42v48.615c-17.79,9.12-30,27.637-30,48.965v200c0,30.327,24.673,55,55,55h100
		c30.327,0,55-24.673,55-55V185C325,154.673,300.328,130,270,130z M295,385c0,13.785-11.215,25-25,25H170c-13.785,0-25-11.215-25-25
		V185c0-13.785,11.215-25,25-25h100c13.785,0,25,11.215,25,25V385z M160.001,30c8.271,0,15,6.729,15,15s-6.729,15-15,15
		s-15-6.729-15-15S151.73,30,160.001,30z"/>
	<path id="XMLID_1005_" d="M175.001,280h90v-90h-90V280z M205.001,220h30v30h-30V220z"/>
	<rect id="XMLID_1008_" x="235.001" y="315" width="30" height="60"/>
	<rect id="XMLID_1009_" x="175.001" y="315" width="30" height="60"/>
	<rect id="XMLID_1010_" x="375" y="320" width="55" height="30"/>
	<path d="M418.829,257.109L374.35,289.46l-17.645-24.26l44.479-32.351L418.829,257.109z"/>
	<path d="M401.153,437.139l-44.478-32.351l17.645-24.26l44.478,32.351L401.153,437.139z"/>
	<rect id="XMLID_1013_" x="10" y="320" width="55" height="30"/>
	<path d="M65.642,289.48l-44.478-32.351l17.646-24.261l44.479,32.351L65.642,289.48z"/>
	<path d="M21.158,412.878l44.479-32.351l17.646,24.261l-44.478,32.351L21.158,412.878z"/>
</g>
<g>
</g>
<g>
</g>
<g>
</g>
<g>
</g>
<g>
</g>
<g>
</g>
<g>
</g>
<g>
</g>
<g>
</g>
<g>
</g>
<g>
</g>
<g>
</g>
<g>
</g>
<g>
</g>
<g>
</g>
</svg>
