<svg id="icons" enable-background="new 0 0 64 64" height="512" viewBox="0 0 64 64" width="512" xmlns="http://www.w3.org/2000/svg"><path d="m45 44.167c6.899-4.446 11-11.946 11-20.176 0-13.233-10.767-24-24-24s-24 10.767-24 24c0 8.229 4.101 15.729 11 20.176v2.824 3.999l-.038.002c-.552.021-.982.485-.961 1.037.021.539.464.962.998.962h.001v1.999l-.038.002c-.552.021-.982.485-.961 1.037.021.539.464.962.998.962h.001v1c0 .266.105.52.293.707l2 2c.188.188.441.293.707.293h4.26c1.301 1.869 3.441 3.018 5.74 3.018s4.439-1.148 5.74-3.018h4.259c.265 0 .52-.105.707-.293l2.001-2c.188-.187.293-.441.293-.707v-1.999l.038-.002c.552-.021.982-.485.961-1.037-.02-.539-.505-.961-.999-.955v-2.006l.038-.002c.552-.021.982-.485.961-1.037-.02-.539-.505-.971-.999-.955v-3.007zm-35-20.176c0-12.131 9.869-22 22-22s22 9.869 22 22c0 7.716-3.934 14.732-10.522 18.771-.297.181-.478.505-.478.852v2.377h-22v-2.377c0-.348-.181-.671-.478-.853-6.588-4.037-10.522-11.054-10.522-18.77zm11 24h22v2.076l-22 .847zm11 14.018c-1.104 0-2.16-.37-3.017-1.018h6.033c-.856.648-1.912 1.018-3.016 1.018zm11-4.432-1.415 1.414h-19.171l-1.414-1.414v-.662l22-.847zm0-3.51-22 .847v-1.999l22-.847z"/><path d="m50 23.991c0-9.925-8.075-18-18-18s-18 8.075-18 18 8.075 18 18 18 18-8.075 18-18zm-34 0c0-8.822 7.178-16 16-16s16 7.178 16 16-7.178 16-16 16-16-7.178-16-16z"/><path d="m26.709 18.287c-.391-.391-1.023-.391-1.414 0l-5.002 5.003c-.391.391-.391 1.023 0 1.414l5.002 5.002c.195.195.451.293.707.293s.512-.098.707-.293c.391-.391.391-1.023 0-1.414l-4.295-4.295 4.295-4.296c.391-.39.391-1.023 0-1.414z"/><path d="m37.29 29.706c.195.195.451.293.707.293s.512-.098.707-.293l5.002-5.002c.391-.391.391-1.023 0-1.414l-5.002-5.003c-.391-.391-1.023-.391-1.414 0s-.391 1.023 0 1.414l4.295 4.296-4.295 4.295c-.391.391-.391 1.023 0 1.414z"/><path d="m34.234 15.022c-.536-.137-1.078.191-1.212.728l-4.001 16.01c-.135.535.191 1.078.728 1.212.081.021.163.03.243.03.448 0 .855-.303.969-.758l4.001-16.01c.135-.535-.191-1.078-.728-1.212z"/></svg>