<svg id="icons" enable-background="new 0 0 64 64" height="512" viewBox="0 0 64 64" width="512" xmlns="http://www.w3.org/2000/svg"><path d="m63.983 6c0-1.654-1.346-3-3-3h-45.967c-1.654 0-3 1.346-3 3v2c0 .031.015.057.018.087v.919h-3.04c-1.654 0-3 1.346-3 3v2c0 .031.015.057.018.087v.907h-3.013c-1.654 0-3 1.346-3 3v2c0 .031.015.057.018.087v39.907c0 .553.447 1 1 1h2.957c.01 0 .018.006.029.006s.019-.006.029-.006h46.952c.553 0 1-.447 1-1v-4.994h4.994c.553 0 1-.447 1-1v-5.006h5.022c.553 0 1-.447 1-1v-39.994c0-.031-.015-.057-.018-.087v-1.913zm-48.967-1h1.02c-.552 0-.994.447-.994 1s.452 1 1.005 1c.552 0 1-.447 1-1s-.448-1-1-1h2.989c-.552 0-.994.447-.994 1s.452 1 1.005 1c.552 0 1-.447 1-1s-.448-1-1-1h2.989c-.552 0-.994.447-.994 1s.452 1 1.005 1c.552 0 1-.447 1-1s-.448-1-1-1h38.938c.552 0 1 .448 1 1v1h-39.939-3-3-.007c-.007 0-.013-.004-.02-.004s-.012.004-.019.004h-1.984v-1c0-.552.448-1 1-1zm-.983 41.994v-37.994h.986v37.994zm-5.04-35.988h1.02c-.552 0-.994.447-.994 1s.452 1 1.005 1c.552 0 1-.447 1-1s-.448-1-1-1h2.01v2h-2.01-.007c-.007 0-.013-.004-.02-.004s-.013.004-.02.004h-1.984v-1c0-.552.448-1 1-1zm-.982 41.994v-37.994h.986v37.994zm-5.012-36h1.02c-.552 0-.994.447-.994 1s.452 1 1.005 1c.552 0 1-.447 1-1s-.448-1-1-1h1.981v2h-1.982-.007c-.007 0-.013-.004-.02-.004s-.012.004-.019.004h-1.984v-1c0-.552.448-1 1-1zm-.982 4h.986v37.994h-.986zm47.967 37.994h-44.981v-37.994h1.008v33c0 .553.447 1 1 1h2.957c.011 0 .019.006.029.006s.019-.006.029-.006h39.958zm5.995-5.994h-44.982v-37.994h1.036v32.988c0 .553.447 1 1 1h42.945v4.006zm6.022-6.006h-44.981v-37.994h44.981z"/><path d="m20.02 12.996h19.002c.553 0 1-.447 1-1s-.447-1-1-1h-19.002c-.553 0-1 .447-1 1s.447 1 1 1z"/><path d="m21.02 15.996c0 .553.447 1 1 1h20.002c.553 0 1-.447 1-1s-.447-1-1-1h-20.002c-.553 0-1 .447-1 1z"/><path d="m36.023 39.012h-14.003c-.553 0-1 .447-1 1s.447 1 1 1h14.004c.553 0 1-.447 1-1s-.448-1-1.001-1z"/><path d="m46.021 16.996h2c.553 0 1-.447 1-1s-.447-1-1-1h-2c-.553 0-1 .447-1 1s.448 1 1 1z"/><path d="m26.02 43h-6c-.553 0-1 .447-1 1s.447 1 1 1h6c.553 0 1-.447 1-1s-.448-1-1-1z"/><path d="m24.02 20.996h4c.553 0 1-.447 1-1s-.447-1-1-1h-4c-.553 0-1 .447-1 1s.447 1 1 1z"/><path d="m31.02 19.996c0 .553.447 1 1 1h21.002c.553 0 1-.447 1-1s-.447-1-1-1h-21.002c-.553 0-1 .447-1 1z"/><path d="m24.02 24.996h23.002c.553 0 1-.447 1-1s-.447-1-1-1h-23.002c-.553 0-1 .447-1 1s.447 1 1 1z"/><path d="m24.02 28.996h13.002c.553 0 1-.447 1-1s-.447-1-1-1h-13.002c-.553 0-1 .447-1 1s.447 1 1 1z"/><path d="m46.03 35.004h-22.01c-.553 0-1 .447-1 1s.447 1 1 1h22.01c.553 0 1-.447 1-1s-.447-1-1-1z"/><path d="m49.023 30.996h-18.002c-.553 0-1 .447-1 1s.447 1 1 1h18.003c.553 0 1-.447 1-1s-.448-1-1.001-1z"/><path d="m24.02 32.996h3.001c.553 0 1-.447 1-1s-.447-1-1-1h-3.001c-.553 0-1 .447-1 1s.447 1 1 1z"/><path d="m50.021 23.996c0 .553.447 1 1 1h4c.553 0 1-.447 1-1s-.447-1-1-1h-4c-.552 0-1 .447-1 1z"/></svg>