<svg id="icons" enable-background="new 0 0 64 64" height="512" viewBox="0 0 64 64" width="512" xmlns="http://www.w3.org/2000/svg"><path d="m9.502 47.994h3c.553 0 1-.447 1-1v-3c0-.553-.447-1-1-1h-3c-.553 0-1 .447-1 1v3c0 .553.447 1 1 1zm1-3h1v1h-1z"/><path d="m15.502 47.994h3c.553 0 1-.447 1-1v-3c0-.553-.447-1-1-1h-3c-.553 0-1 .447-1 1v3c0 .553.447 1 1 1zm1-3h1v1h-1z"/><path d="m21.5 47.994h3c.553 0 1-.447 1-1v-3c0-.553-.447-1-1-1h-3c-.553 0-1 .447-1 1v3c0 .553.447 1 1 1zm1-3h1v1h-1z"/><path d="m27.5 47.994h3c.553 0 1-.447 1-1v-3c0-.553-.447-1-1-1h-3c-.553 0-1 .447-1 1v3c0 .553.447 1 1 1zm1-3h1v1h-1z"/><path d="m33.498 47.994h3c.553 0 1-.447 1-1v-3c0-.553-.447-1-1-1h-3c-.553 0-1 .447-1 1v3c0 .553.447 1 1 1zm1-3h1v1h-1z"/><path d="m39.498 47.994h3c.553 0 1-.447 1-1v-3c0-.553-.447-1-1-1h-3c-.553 0-1 .447-1 1v3c0 .553.447 1 1 1zm1-3h1v1h-1z"/><path d="m45.496 47.994h3c.553 0 1-.447 1-1v-3c0-.553-.447-1-1-1h-3c-.553 0-1 .447-1 1v3c0 .553.447 1 1 1zm1-3h1v1h-1z"/><path d="m9.502 53.993h9c.553 0 1-.447 1-1v-3c0-.553-.447-1-1-1h-9c-.553 0-1 .447-1 1v3c0 .553.447 1 1 1zm1-3h7v1h-7z"/><path d="m21.5 53.993h3c.553 0 1-.447 1-1v-3c0-.553-.447-1-1-1h-3c-.553 0-1 .447-1 1v3c0 .553.447 1 1 1zm1-3h1v1h-1z"/><path d="m27.5 53.993h3c.553 0 1-.447 1-1v-3c0-.553-.447-1-1-1h-3c-.553 0-1 .447-1 1v3c0 .553.447 1 1 1zm1-3h1v1h-1z"/><path d="m33.498 53.993h3c.553 0 1-.447 1-1v-3c0-.553-.447-1-1-1h-3c-.553 0-1 .447-1 1v3c0 .553.447 1 1 1zm1-3h1v1h-1z"/><path d="m39.498 53.993h3c.553 0 1-.447 1-1v-3c0-.553-.447-1-1-1h-3c-.553 0-1 .447-1 1v3c0 .553.447 1 1 1zm1-3h1v1h-1z"/><path d="m45.496 53.993h3c.553 0 1-.447 1-1v-3c0-.553-.447-1-1-1h-3c-.553 0-1 .447-1 1v3c0 .553.447 1 1 1zm1-3h1v1h-1z"/><path d="m51.496 53.993h3c.553 0 1-.447 1-1v-8.999c0-.553-.447-1-1-1h-3c-.553 0-1 .447-1 1v8.999c0 .553.447 1 1 1zm1-8.999h1v6.999h-1z"/><path d="m9.502 59.992h3c.553 0 1-.447 1-1v-3c0-.553-.447-1-1-1h-3c-.553 0-1 .447-1 1v3c0 .553.447 1 1 1zm1-3h1v1h-1z"/><path d="m18.502 54.992h-3c-.553 0-1 .447-1 1v3c0 .553.447 1 1 1h3c.553 0 1-.447 1-1v-3c0-.553-.447-1-1-1zm-1 3h-1v-1h1z"/><path d="m21.5 59.992h20.998c.553 0 1-.447 1-1v-3c0-.553-.447-1-1-1h-20.998c-.553 0-1 .447-1 1v3c0 .553.447 1 1 1zm1-3h18.998v1h-18.998z"/><path d="m45.496 59.992h3c.553 0 1-.447 1-1v-3c0-.553-.447-1-1-1h-3c-.553 0-1 .447-1 1v3c0 .553.447 1 1 1zm1-3h1v1h-1z"/><path d="m51.496 59.992h3c.553 0 1-.447 1-1v-3c0-.553-.447-1-1-1h-3c-.553 0-1 .447-1 1v3c0 .553.447 1 1 1zm1-3h1v1h-1z"/><path d="m20.496 10.009h20.004c.553 0 1-.447 1-1s-.447-1-1-1h-20.004c-.553 0-1 .447-1 1s.447 1 1 1z"/><path d="m37.5 13.009c0-.553-.447-1-1-1h-14.004c-.553 0-1 .447-1 1s.447 1 1 1h14.004c.553 0 1-.447 1-1z"/><path d="m35.5 24.006h-13.004c-.553 0-1 .447-1 1s.447 1 1 1h13.004c.553 0 1-.447 1-1s-.447-1-1-1z"/><path d="m39.5 13.009c0 .553.447 1 1 1h2c.553 0 1-.447 1-1s-.447-1-1-1h-2c-.553 0-1 .447-1 1z"/><path d="m26.496 27.992h-6c-.553 0-1 .447-1 1s.447 1 1 1h6c.553 0 1-.447 1-1s-.447-1-1-1z"/><path d="m23.496 21.005c0 .553.447 1 1 1h20.004c.553 0 1-.447 1-1s-.447-1-1-1h-20.004c-.553 0-1 .447-1 1z"/><path d="m24.496 16.003c-.553 0-1 .447-1 1s.447 1 1 1h5.99c.553 0 1-.447 1-1s-.447-1-1-1z"/><path d="m56.494 35.992h-21.494c-1.859 0-3.413 1.281-3.859 3.003h-23.637c-1.654 0-3 1.346-3 3v18.996c0 1.654 1.346 3 3 3h48.99c1.654 0 3-1.346 3-3v-18.996c0-1.654-1.346-3-3-3h-23.218c.347-.597.985-1.003 1.724-1.003h21.494c1.655 0 3.002-1.347 3.002-3.002v-15.985c0-1.655-1.347-3.002-3.002-3.002h-4.004v-10.994-2c0-1.654-1.346-3-3-3h-33.994c-1.654 0-3 1.346-3 3v2 27.983c0 .553.447 1 1 1h38.006c.553 0 1-.447 1-1 0-.052-.004-.104-.012-.153v-14.836h4.004c.553 0 1.002.449 1.002 1.002v15.985c0 .553-.449 1.002-1.002 1.002zm1 6.003v18.996c0 .552-.448 1-1 1h-48.99c-.552 0-1-.448-1-1v-18.996c0-.552.448-1 1-1h48.99c.552 0 1 .448 1 1zm-41.998-39.986h1.02c-.552 0-.994.447-.994 1s.452 1 1.005 1c.552 0 1-.447 1-1s-.448-1-1-1h2.989c-.552 0-.994.447-.994 1s.452 1 1.005 1c.552 0 1-.447 1-1s-.448-1-1-1h2.989c-.552 0-.994.447-.994 1s.452 1 1.005 1c.552 0 1-.447 1-1s-.448-1-1-1h26.963c.552 0 1 .448 1 1v1h-27.964-3-3-2.03v-1c0-.552.448-1 1-1zm-1 4h1v25.983h-1zm35.994 25.983h-32.994v-25.983h32.994z"/></svg>