<svg id="icons" enable-background="new 0 0 64 64" height="512" viewBox="0 0 64 64" width="512" xmlns="http://www.w3.org/2000/svg"><path d="m6.002 33.006v3.002h-1.999c-.553 0-1 .447-1 1v25.99c0 .553.447 1 1 1h55.994c.553 0 1-.447 1-1v-25.99c0-.553-.447-1-1-1h-1.999v-3.002c0-.553-.447-1-1-1h-20.998c-1.642 0-3.088.806-4 2.032-.912-1.227-2.358-2.032-4-2.032h-20.998c-.553 0-1 .447-1 1zm-.999 5.002h.999v20.99c0 .553.447 1 1 1h20.998c1.302 0 2.401.839 2.815 2h-25.812zm53.994 0v23.99h-25.812c.414-1.161 1.514-2 2.815-2h20.998c.553 0 1-.447 1-1v-20.99zm-22.997-4.002h19.998v23.992h-19.998c-1.13 0-2.162.391-3 1.025v-22.015c0-1.655 1.346-3.002 3-3.002zm-5 3.002v22.016c-.838-.635-1.87-1.025-3-1.025h-19.998v-23.993h19.998c1.654 0 3 1.347 3 3.002z"/><path d="m12.002 39.006h8.998c.553 0 1-.447 1-1s-.447-1-1-1h-8.998c-.553 0-1 .447-1 1s.447 1 1 1z"/><path d="m12.002 47.01h7c.553 0 1-.447 1-1s-.447-1-1-1h-7c-.553 0-1 .447-1 1s.447 1 1 1z"/><path d="m27 45.01h-3.998c-.553 0-1 .447-1 1s.447 1 1 1h3.998c.553 0 1-.447 1-1s-.447-1-1-1z"/><path d="m27 41.008h-10.998c-.553 0-1 .447-1 1s.447 1 1 1h10.998c.553 0 1-.447 1-1s-.447-1-1-1z"/><path d="m12.002 43.008h1c.553 0 1-.447 1-1s-.447-1-1-1h-1c-.553 0-1 .447-1 1s.447 1 1 1z"/><path d="m27 37.006h-2c-.553 0-1 .447-1 1s.447 1 1 1h2c.553 0 1-.447 1-1s-.447-1-1-1z"/><path d="m12.002 51.012h9.998c.553 0 1-.447 1-1s-.447-1-1-1h-9.998c-.553 0-1 .447-1 1s.447 1 1 1z"/><path d="m27 49.012h-1c-.553 0-1 .447-1 1s.447 1 1 1h1c.553 0 1-.447 1-1s-.447-1-1-1z"/><path d="m16.002 53.014h-4c-.553 0-1 .447-1 1s.447 1 1 1h4c.553 0 1-.447 1-1s-.447-1-1-1z"/><path d="m27 53.014h-6.998c-.553 0-1 .447-1 1s.447 1 1 1h6.998c.553 0 1-.447 1-1s-.447-1-1-1z"/><path d="m43.017 38.998h8.998c.553 0 1-.447 1-1s-.447-1-1-1h-8.998c-.553 0-1 .447-1 1s.447 1 1 1z"/><path d="m52.015 45.002h-7c-.553 0-1 .447-1 1s.447 1 1 1h7c.553 0 1-.447 1-1s-.448-1-1-1z"/><path d="m37.017 47.002h3.998c.553 0 1-.447 1-1s-.447-1-1-1h-3.998c-.553 0-1 .447-1 1s.447 1 1 1z"/><path d="m37.017 43h10.998c.553 0 1-.447 1-1s-.447-1-1-1h-10.998c-.553 0-1 .447-1 1s.447 1 1 1z"/><path d="m52.015 41h-1c-.553 0-1 .447-1 1s.447 1 1 1h1c.553 0 1-.447 1-1s-.448-1-1-1z"/><path d="m37.017 38.998h2c.553 0 1-.447 1-1s-.447-1-1-1h-2c-.553 0-1 .447-1 1s.447 1 1 1z"/><path d="m52.015 49.004h-9.998c-.553 0-1 .447-1 1s.447 1 1 1h9.998c.553 0 1-.447 1-1s-.448-1-1-1z"/><path d="m37.017 51.004h1c.553 0 1-.447 1-1s-.447-1-1-1h-1c-.553 0-1 .447-1 1s.447 1 1 1z"/><path d="m52.015 53.006h-4c-.553 0-1 .447-1 1s.447 1 1 1h4c.553 0 1-.447 1-1s-.448-1-1-1z"/><path d="m37.017 55.006h6.998c.553 0 1-.447 1-1s-.447-1-1-1h-6.998c-.553 0-1 .447-1 1s.447 1 1 1z"/><path d="m31.293 31.707c.195.195.451.293.707.293s.512-.098.707-.293l1.96-1.96c7.166-1.284 12.333-7.434 12.333-14.745 0-8.271-6.729-15-15-15s-15 6.729-15 15c0 7.312 5.167 13.461 12.333 14.745zm-12.293-16.705c0-7.168 5.832-13 13-13s13 5.832 13 13c0 6.431-4.613 11.824-10.97 12.824-.209.033-.402.132-.552.281l-1.478 1.479-1.479-1.479c-.149-.149-.343-.248-.552-.281-6.356-1-10.969-6.393-10.969-12.824z"/><path d="m27.695 11.289c-.391-.391-1.023-.391-1.414 0l-3 3c-.391.391-.391 1.023 0 1.414l3 3c.195.195.451.293.707.293s.512-.098.707-.293c.391-.391.391-1.023 0-1.414l-2.293-2.293 2.293-2.293c.391-.39.391-1.023 0-1.414z"/><path d="m36.288 18.703c.195.195.451.293.707.293s.512-.098.707-.293l3-3c.391-.391.391-1.023 0-1.414l-3-3c-.391-.391-1.023-.391-1.414 0s-.391 1.023 0 1.414l2.293 2.293-2.293 2.293c-.391.391-.391 1.024 0 1.414z"/><path d="m30.919 20.369 4.001-10.004c.205-.513-.045-1.095-.558-1.3-.51-.206-1.096.043-1.3.558l-4.001 10.004c-.205.513.045 1.095.558 1.3.121.049.247.071.371.071.397 0 .773-.237.929-.629z"/></svg>