<svg id="icons" enable-background="new 0 0 64 64" height="512" viewBox="0 0 64 64" width="512" xmlns="http://www.w3.org/2000/svg"><path d="m8.004 9.996h19.002c.553 0 1-.447 1-1s-.447-1-1-1h-19.002c-.553 0-1 .447-1 1s.447 1 1 1z"/><path d="m9.004 12.996c0 .553.447 1 1 1h20.002c.553 0 1-.447 1-1s-.447-1-1-1h-20.002c-.553 0-1 .447-1 1z"/><path d="m24.008 36.012h-14.004c-.553 0-1 .447-1 1s.447 1 1 1h14.004c.553 0 1-.447 1-1s-.447-1-1-1z"/><path d="m34.006 13.996h2c.553 0 1-.447 1-1s-.447-1-1-1h-2c-.553 0-1 .447-1 1s.447 1 1 1z"/><path d="m14.004 40h-6c-.553 0-1 .447-1 1s.447 1 1 1h6c.553 0 1-.447 1-1s-.447-1-1-1z"/><path d="m12.004 17.996h4c.553 0 1-.447 1-1s-.447-1-1-1h-4c-.553 0-1 .447-1 1s.447 1 1 1z"/><path d="m19.004 16.996c0 .553.447 1 1 1h21.002c.553 0 1-.447 1-1s-.447-1-1-1h-21.002c-.553 0-1 .447-1 1z"/><path d="m35.006 19.996h-23.002c-.553 0-1 .447-1 1s.447 1 1 1h23.002c.553 0 1-.447 1-1s-.447-1-1-1z"/><path d="m26.006 24.996c0-.553-.447-1-1-1h-13.002c-.553 0-1 .447-1 1s.447 1 1 1h13.002c.553 0 1-.447 1-1z"/><path d="m32.013 32.004h-20.009c-.553 0-1 .447-1 1s.447 1 1 1h20.009c.553 0 1-.447 1-1s-.448-1-1-1z"/><path d="m19.005 29.996h12.998c.553 0 1-.447 1-1s-.447-1-1-1h-12.998c-.553 0-1 .447-1 1s.447 1 1 1z"/><path d="m12.004 27.996c-.553 0-1 .447-1 1s.447 1 1 1h3.001c.553 0 1-.447 1-1s-.447-1-1-1z"/><path d="m63.706 31.289-5.998-6.002c-.092-.092-.201-.165-.323-.217-.121-.05-.251-.077-.385-.077h-5.015v-19.993c0-.031-.015-.057-.018-.087v-1.913c0-1.654-1.346-3-3-3h-45.967c-1.654 0-3 1.346-3 3v2c0 .031.015.057.018.087v40.908c0 .553.447 1 1 1h33.982v16.005c0 .553.447 1 1 1h23.999c.553 0 1-.447 1-1v-2.003h2.001c.553 0 1-.447 1-1v-28c0-.133-.027-.264-.077-.385-.051-.122-.125-.231-.217-.323zm-5.706-2.881 2.587 2.589h-2.587zm-55-26.408h1.02c-.552 0-.995.447-.995 1s.453 1 1.005 1 1-.447 1-1-.448-1-1-1h2.99c-.552 0-.995.447-.995 1s.453 1 1.005 1 1-.447 1-1-.448-1-1-1h2.989c-.551 0-.994.447-.994 1s.452 1 1.005 1c.552 0 1-.447 1-1s-.448-1-1-1h38.938c.552 0 1 .448 1 1v1h-39.938-3-3-.007c-.007 0-.013-.004-.02-.004s-.012.004-.019.004h-1.984v-1c0-.552.448-1 1-1zm-.982 4h.986v38.995h-.986zm2.986 38.995v-38.995h44.981v18.993h-10.984c-.553 0-1 .447-1 1v2.003h-2.001c-.553 0-1 .447-1 1v15.999zm53.995 17.005h-21.999v-32.004h1.001v30.001c0 .553.447 1 1 1h19.998zm-18.998-3.003v-32.004h10.945c.014.001.025.008.039.008s.025-.007.039-.008h4.976v5.004c0 .553.447 1 1 1h5v26z"/><path d="m58 38h-13.999c-.553 0-1 .447-1 1s.447 1 1 1h13.999c.553 0 1-.447 1-1s-.447-1-1-1z"/><path d="m58 42h-13.999c-.553 0-1 .447-1 1s.447 1 1 1h13.999c.553 0 1-.447 1-1s-.447-1-1-1z"/><path d="m58 46h-13.999c-.553 0-1 .447-1 1s.447 1 1 1h13.999c.553 0 1-.447 1-1s-.447-1-1-1z"/><path d="m51 50h-6.999c-.553 0-1 .447-1 1s.447 1 1 1h6.999c.553 0 1-.447 1-1s-.447-1-1-1z"/></svg>