<svg id="icons" enable-background="new 0 0 64 64" height="512" viewBox="0 0 64 64" width="512" xmlns="http://www.w3.org/2000/svg"><path d="m41 48-3 .002v-1.625c3.58-2.079 5.999-5.945 6-10.374 0-.001 0-.001 0-.001v-9.002c0-2.967-2.167-5.431-5-5.91v-3.09c0-.552-.447-1-1-1h-8c-.002 0-.004.001-.007.001-5.511.004-9.993 4.488-9.993 9.999v9.001.001c.001 4.429 2.42 8.295 6 10.374v1.625l-2.999-.001c-.001 0-.001 0-.001 0-3.859 0-7 3.141-7 7 0 .051.021.095.029.144-.008.048-.029.092-.029.143v5.713c0 1.654 1.346 3 3 3h26c1.654 0 3-1.346 3-3v-5.713c0-.051-.021-.095-.029-.144.008-.048.029-.092.029-.143 0-3.859-3.141-7-7-7zm-11-28.999c.002 0 .003-.001.005-.001h6.995v3c0 .552.447 1 1 1 2.206 0 4 1.794 4 4v2.586l-1.293-1.293c-.013-.013-.03-.017-.044-.029-.054-.048-.113-.082-.176-.117-.053-.03-.102-.063-.158-.083-.061-.021-.124-.027-.188-.037-.063-.009-.123-.021-.186-.019-.062.003-.119.021-.18.035-.068.016-.134.03-.198.061-.017.008-.034.007-.051.016-.035.019-3.539 1.88-7.526 1.88-3.968 0-7.492-1.862-7.527-1.881-.016-.009-.034-.007-.05-.015-.066-.031-.134-.045-.203-.062-.059-.013-.115-.031-.174-.034-.065-.003-.127.01-.191.02-.063.009-.124.015-.185.036-.057.021-.106.054-.16.085-.061.035-.119.067-.172.114-.014.012-.031.017-.045.03l-1.293 1.293v-2.586c0-4.41 3.589-7.999 8-7.999zm-8 16.999v-3.585l2.204-2.204c1.309.596 4.356 1.789 7.796 1.789s6.487-1.194 7.796-1.79l2.204 2.205v3.585c0 5.514-4.486 10-10 10s-10-4.486-10-10zm10 12c1.404 0 2.747-.255 4-.7v1.288l-1.27 1.269-2.414-.805c-.037-.013-.074-.006-.111-.014-.068-.015-.135-.025-.205-.025-.071 0-.137.011-.205.025-.037.008-.074.001-.111.014l-2.414.805-1.27-1.269v-1.288c1.253.445 2.596.7 4 .7zm13 14h-26c-.552 0-1-.448-1-1v-5.713c0-.051-.021-.095-.029-.144.008-.048.029-.092.029-.143 0-2.757 2.243-5 5-5l3.586.002 1.707 1.705c.016.016.037.021.054.035.065.059.137.104.216.144.032.016.062.035.095.048.109.04.223.066.342.066.104 0 .211-.017.316-.052l2.684-.894 2.684.895c.105.034.212.051.316.051.119 0 .233-.026.343-.066.034-.013.063-.032.095-.048.079-.039.15-.085.216-.144.017-.015.038-.02.054-.035l1.707-1.705 3.585-.002c2.757 0 5 2.243 5 5 0 .051.021.095.029.144-.008.048-.029.092-.029.143v5.713c0 .552-.448 1-1 1z"/><path d="m32.03 54h-.01c-.552 0-.994.447-.994 1s.452 1 1.005 1c.552 0 1-.447 1-1s-.449-1-1.001-1z"/><path d="m32.03 58h-.01c-.552 0-.994.447-.994 1s.452 1 1.005 1c.552 0 1-.447 1-1s-.449-1-1.001-1z"/><path d="m20.52 7.878 11.002 6.001c.148.082.313.122.479.122s.33-.041.479-.122l11-6.001c.322-.175.522-.512.522-.878s-.2-.703-.521-.878l-11.002-6c-.297-.163-.66-.163-.957 0l-11.002 6.001c-.322.175-.522.512-.522.877s.2.703.522.878zm11.48-5.739 8.914 4.861-8.914 4.863-8.914-4.863z"/><path d="m46 8h7.998v4.584l-.293-.293c-.391-.391-1.023-.391-1.414 0s-.391 1.023 0 1.414l1.999 1.999c.093.093.203.166.326.217.122.05.252.077.382.077s.26-.026.382-.077c.123-.051.233-.124.326-.217l1.999-1.999c.391-.391.391-1.023 0-1.414s-1.023-.391-1.414 0l-.293.293v-5.584c0-.552-.447-1-1-1h-8.998c-.553 0-1 .448-1 1s.447 1 1 1z"/><path d="m45.998 17.998v8.001c0 .552.447 1 1 1h16.002c.553 0 1-.448 1-1v-8.001c0-.552-.447-1-1-1h-16.002c-.553 0-1 .447-1 1zm2 1h14.002v6.001h-14.002z"/><path d="m8.294 15.704c.093.093.203.166.326.217.122.05.252.077.382.077s.26-.026.382-.077c.123-.051.233-.124.326-.217l1.999-1.999c.391-.391.391-1.023 0-1.414s-1.023-.391-1.414 0l-.293.293v-4.584h7.998c.553 0 1-.448 1-1s-.447-1-1-1h-8.998c-.553 0-1 .448-1 1v5.584l-.293-.293c-.391-.391-1.023-.391-1.414 0s-.391 1.023 0 1.414z"/><path d="m1 26.999h16.002c.553 0 1-.448 1-1v-8.001c0-.552-.447-1-1-1h-16.002c-.553 0-1 .448-1 1v8.001c0 .552.447 1 1 1zm1-8.001h14.002v6.001h-14.002z"/><path d="m13 21h-8c-.553 0-1 .448-1 1s.447 1 1 1h8c.553 0 1-.448 1-1s-.447-1-1-1z"/><path d="m59 20.999h-8c-.553 0-1 .448-1 1s.447 1 1 1h8c.553 0 1-.448 1-1s-.447-1-1-1z"/><path d="m37 7c0-.552-.447-1-1-1h-8c-.553 0-1 .448-1 1s.447 1 1 1h8c.553 0 1-.447 1-1z"/></svg>