<svg id="icons" enable-background="new 0 0 64 64" height="512" viewBox="0 0 64 64" width="512" xmlns="http://www.w3.org/2000/svg"><path d="m29.032 23.002c.552 0 1-.447 1-1s-.448-1-1-1h-.011c-.552 0-.994.447-.994 1s.452 1 1.005 1z"/><path d="m25.032 23.002c.552 0 1-.447 1-1s-.448-1-1-1h-.011c-.552 0-.994.447-.994 1s.452 1 1.005 1z"/><path d="m21.002 22.002c0 1.728.727 3.324 2 4.463v1.537c0 .553.447 1 1 1h6.004c.553 0 1-.447 1-1v-1.542c1.255-1.131 1.996-2.758 1.996-4.458 1.654 0 3-1.346 3-3v-2c0-.553-.447-1-1-1s-1 .447-1 1v2c0 .552-.448 1-1 1h-.35c-.827-2.326-3.044-4-5.65-4s-4.823 1.674-5.65 4h-.35c-.552 0-1-.448-1-1v-2c0-.553-.447-1-1-1s-1 .447-1 1v2c0 1.654 1.346 3 3 3zm6-4c2.206 0 4 1.794 4 4 0 1.271-.583 2.437-1.601 3.2-.021.017-.031.04-.052.058-.044.039-.078.084-.115.13-.046.059-.09.115-.122.181-.021.044-.032.091-.047.138-.025.08-.044.157-.049.241-.001.019-.011.034-.011.053v1h-1.004c0-.553-.447-1-1-1s-1 .447-1 1h-1v-1.003c0-.029-.014-.054-.017-.082-.005-.055-.019-.104-.031-.157-.02-.075-.039-.147-.074-.216-.022-.043-.052-.079-.081-.119-.048-.066-.098-.128-.16-.181-.016-.013-.022-.031-.039-.044-1.016-.765-1.598-1.932-1.598-3.199.001-2.206 1.795-4 4.001-4z"/><path d="m54.008 38.049v-29.047c0-.031-.015-.057-.018-.087v-1.913c0-1.654-1.346-3-3-3h-47.99c-1.654 0-3 1.346-3 3v2c0 .031.015.057.018.087v36.802c-.005.058-.005.112 0 .17v2.936c0 .553.447 1 1 1h21.945c.014.001.025.008.039.008s.025-.007.039-.008h7.922c.014.001.025.008.039.008s.025-.007.039-.008h11.01c.506 5.598 5.22 10.001 10.949 10.001 6.065 0 11-4.935 11-11 0-5.726-4.398-10.437-9.992-10.949zm-6.232 1.271-.753-.736v-28.582h4.984v28.046c-1.519.137-2.951.579-4.231 1.272zm-5.725 8.676h-10.049v-2.992c0-.031-.015-.057-.018-.087-.003-.031.008-.06.002-.091l-.873-4.822h14.502l.465.455c-2.242 1.82-3.754 4.502-4.029 7.537zm-27.051-.996v.996h-2.518l.997-.996zm2-1c0-.553-.447-1-1-1h-12.603l5.014-4.996h14.483l-.876 4.821c-.006.03.004.059.002.089-.003.031-.019.058-.019.09v2.992h-5.001zm28.023-35.998v28.002h-14.271l-.757-4.18c-.007-.038-.03-.066-.041-.103-.02-.066-.042-.128-.074-.188-.03-.055-.063-.104-.103-.151-.042-.052-.085-.098-.136-.14-.049-.04-.099-.073-.153-.104-.057-.031-.112-.057-.174-.076-.064-.021-.129-.032-.197-.04-.037-.004-.068-.021-.106-.021h-1.009c0-.553-.447-1-1-1s-1 .447-1 1h-1c-.035 0-.064.017-.099.02-.075.008-.146.021-.216.044-.054.018-.102.04-.15.066-.063.033-.119.07-.174.116-.046.039-.085.081-.123.127-.041.051-.077.103-.108.161-.032.06-.054.12-.073.187-.011.035-.033.063-.04.101l-.76 4.181h-14.261v-28.002zm-16.848 25 1.087 6.002h-4.517l1.091-6.002zm-3.793 8.002h1.62c0 .553.447 1 1 1s1-.447 1-1h1.621l.182 1h-2.803-2.803zm-17.384-4.415-4.98 4.963v-33.55h4.98zm17.004 7.415h6v1.992h-6zm-21.002-40.002h1.02c-.552 0-.994.447-.994 1s.452 1 1.005 1c.552 0 1-.447 1-1s-.448-1-1-1h2.989c-.552 0-.994.447-.994 1s.452 1 1.005 1c.552 0 1-.447 1-1s-.448-1-1-1h2.989c-.552 0-.994.447-.994 1s.452 1 1.005 1c.552 0 1-.447 1-1s-.448-1-1-1h40.96c.552 0 1 .448 1 1v1h-5.947c-.007 0-.013-.004-.02-.004s-.013.004-.02.004h-35.974-2.012c-.007 0-.013-.004-.02-.004s-.013.004-.02.004h-.948-3-2.03v-1c0-.552.448-1 1-1zm-.982 40.998h8.633l-.996.996h-7.637zm50.982 10.998c-4.963 0-9-4.037-9-9s4.036-8.999 8.998-9c.004 0 .007.002.01.002.002 0 .004-.001.006-.001 4.957.008 8.986 4.041 8.986 8.999 0 4.963-4.037 9-9 9z"/><path d="m49.709 46.297c-.391-.391-1.023-.391-1.414 0l-1.999 2c-.391.391-.391 1.023 0 1.414l1.999 2c.195.195.451.293.707.293s.512-.098.707-.293c.391-.391.391-1.023 0-1.414l-1.292-1.293 1.292-1.293c.391-.391.391-1.023 0-1.414z"/><path d="m56.3 46.297c-.391.391-.391 1.023 0 1.414l1.292 1.293-1.292 1.293c-.391.391-.391 1.023 0 1.414.195.195.451.293.707.293s.512-.098.707-.293l1.999-2c.391-.391.391-1.023 0-1.414l-1.999-2c-.391-.391-1.024-.391-1.414 0z"/><path d="m54.319 45.056c-.527-.176-1.091.108-1.266.632l-1.998 6c-.175.524.108 1.091.632 1.265.105.035.212.052.316.052.419 0 .81-.265.948-.684l1.999-6c.176-.525-.107-1.092-.631-1.265z"/></svg>