<svg id="icons" enable-background="new 0 0 64 64" height="512" viewBox="0 0 64 64" width="512" xmlns="http://www.w3.org/2000/svg"><path d="m17.499 7.998c0 1.103-.897 2-2 2h-.001c-2.756.001-4.998 2.244-4.998 5v34.004c0 2.757 2.243 5 5 5h.001c1.102 0 1.997.896 1.997 1.996 0 .009.005.016.005.024v3.975c0 .002.001.004.001.005s0 .001 0 .001c0 2.204 1.793 3.997 3.996 3.997h18.005c2.203 0 3.996-1.793 3.996-3.997 0-.005-.003-.01-.003-.015v-3.972c0-.005.003-.01.003-.015 0-1.103.897-2 2-2h.001c2.756-.001 4.998-2.244 4.998-5v-20.996h2c.553 0 1-.447 1-1v-7.001c0-.553-.447-1-1-1h-2v-4.006c0-2.757-2.243-5-5-5h-.001c-1.102 0-1.997-.896-1.997-1.996 0-.009-.005-.016-.005-.024v-3.975c0-.002-.001-.004-.001-.005s0-.001 0-.001c0-2.204-1.793-3.997-3.996-3.997h-18.005c-2.203 0-3.996 1.793-3.996 3.997 0 .005.003.01.003.015v3.972c0 .004-.003.009-.003.014zm22.006 54.002h-18.005c-1.101 0-1.996-.896-1.996-1.997 0-.002-.001-.004-.001-.005s0-.001 0-.001v-3.999c0-.018-.009-.031-.01-.049-.009-.711-.214-1.371-.55-1.947h23.114c-.34.583-.549 1.25-.554 1.971 0 .011-.006.019-.006.029v3.995c0 .004.002.008.002.012-.002 1.098-.895 1.991-1.994 1.991zm11.995-40.996v5.001h-1v-5.001zm-3-6.006v34.004c0 1.654-1.346 3-3 3h-30c-1.654 0-3-1.346-3-3v-34.004c0-1.654 1.346-3 3-3h30c1.654 0 3 1.346 3 3zm-27.005-12.998h18.005c1.101 0 1.996.896 1.996 1.997 0 .002.001.004.001.005s0 .001 0 .001v3.999c0 .018.009.031.01.049.009.711.214 1.371.55 1.947h-23.115c.34-.583.549-1.25.554-1.971 0-.011.006-.019.006-.029v-3.995c0-.004-.002-.008-.002-.012.003-1.098.896-1.991 1.995-1.991z"/><path d="m15.5 12.998c-1.103 0-2 .897-2 2v34.004c0 1.103.897 2 2 2h30c1.103 0 2-.897 2-2v-34.004c0-1.103-.897-2-2-2zm29.988 36.004h-29.988v-34.004h30z"/><path d="m30.5 45c7.168 0 13-5.832 13-13s-5.832-13-13-13-13 5.832-13 13 5.832 13 13 13zm0-24c6.065 0 11 4.935 11 11s-4.935 11-11 11-11-4.935-11-11 4.935-11 11-11z"/><path d="m25.498 36c.256 0 .512-.098.707-.293.391-.391.391-1.023 0-1.414l-2.293-2.293 2.293-2.294c.391-.391.391-1.023 0-1.414s-1.023-.391-1.414 0l-3 3.001c-.391.391-.391 1.023 0 1.414l3 3c.195.195.451.293.707.293z"/><path d="m34.798 35.707c.195.195.451.293.707.293s.512-.098.707-.293l3-3c.391-.391.391-1.023 0-1.414l-3-3.001c-.391-.391-1.023-.391-1.414 0s-.391 1.023 0 1.414l2.293 2.294-2.293 2.293c-.391.391-.391 1.023 0 1.414z"/><path d="m28.129 37.931c.121.049.247.071.371.071.396 0 .772-.237.929-.629l4.001-10.004c.205-.513-.045-1.095-.558-1.3-.509-.206-1.095.043-1.3.558l-4.001 10.004c-.205.513.045 1.095.558 1.3z"/></svg>