<svg id="icons" enable-background="new 0 0 64 64" height="512" viewBox="0 0 64 64" width="512" xmlns="http://www.w3.org/2000/svg"><path d="m63 32.512h-9.175l-.603-3.015h6.778c1.654 0 3-1.346 3-3v-17.996c0-1.654-1.346-3-3-3h-23.994c-1.654 0-3 1.346-3 3v17.996c0 1.654 1.346 3 3 3h6.777l-.603 3.015h-20.359l-.603-3.015h6.777c1.654 0 3-1.346 3-3v-17.996c0-1.654-1.346-3-3-3h-23.993c-1.654 0-3 1.346-3 3v17.996c0 1.654 1.346 3 3 3h6.777l-.603 3.015h-9.176c-.553 0-1 .447-1 1v4c0 .553.447 1 1 1h1v18.987c0 .553.447 1 1 1s1-.447 1-1v-18.987h2v18.987c0 .553.447 1 1 1s1-.447 1-1v-18.987h48.003v18.987c0 .553.447 1 1 1s1-.447 1-1v-18.987h2v18.987c0 .553.447 1 1 1s1-.447 1-1v-18.987h.997c.553 0 1-.447 1-1v-4c0-.553-.447-1-1-1zm-27.994-22.013h25.994v12.998h-25.994zm1-2.998h23.994c.551 0 .998.447 1 .998h-25.994c.002-.551.449-.998 1-.998zm-1 18.996v-1h13.017c-.552 0-.994.447-.994 1s.452 1 1.005 1c.552 0 1-.447 1-1s-.448-1-1-1h12.966v1c0 .552-.448 1-1 1h-11.967-12.027c-.552 0-1-.448-1-1zm9.816 3h6.361l.603 3.015h-7.566zm-15.826-20.996v14.996h-22.996v-15.996h21.996c.552 0 1 .448 1 1zm-24.996-1v15.996h-.998v-14.996c0-.551.447-.999.998-1zm-.998 18.996v-1h13.017c-.552 0-.994.447-.994 1s.452 1 1.005 1c.552 0 1-.447 1-1s-.448-1-1-1h12.967v1c0 .552-.448 1-1 1h-11.968-12.027c-.552 0-1-.448-1-1zm9.816 3h6.361l.603 3.015h-7.566zm-10.818 5.015h2.977c.007 0 .013.004.02.004h28c.007 0 .013-.004.02-.004h28.983v2h-60z"/><path d="m8 10.498h3c.553 0 1-.447 1-1s-.447-1-1-1h-3c-.553 0-1 .447-1 1s.447 1 1 1z"/><path d="m11 20.499h-3c-.553 0-1 .447-1 1s.447 1 1 1h3c.553 0 1-.447 1-1s-.447-1-1-1z"/><path d="m16.005 17.499h-7.004c-.553 0-1 .447-1 1s.447 1 1 1h7.004c.553 0 1-.447 1-1s-.447-1-1-1z"/><path d="m9.002 15.499c0 .553.447 1 1 1h16.013c.553 0 1-.447 1-1s-.447-1-1-1h-16.013c-.553 0-1 .447-1 1z"/><path d="m8.001 12.499c0 .553.447 1 1 1h11.008c.553 0 1-.447 1-1s-.447-1-1-1h-11.008c-.553 0-1 .447-1 1z"/><path d="m59 11.499h-22c-.553 0-1 .447-1 1v6c0 .553.447 1 1 1h22c.553 0 1-.447 1-1v-6c0-.553-.447-1-1-1zm-1 6h-20v-4h20z"/><path d="m41 16.499h14c.553 0 1-.447 1-1s-.447-1-1-1h-14c-.553 0-1 .447-1 1s.447 1 1 1z"/><path d="m46.526 20.499h-9.526c-.553 0-1 .447-1 1s.447 1 1 1h9.526c.553 0 1-.447 1-1s-.447-1-1-1z"/><path d="m59 20.499h-9.475c-.553 0-1 .447-1 1s.447 1 1 1h9.475c.553 0 1-.447 1-1s-.447-1-1-1z"/></svg>