<svg id="icons" enable-background="new 0 0 64 64" height="512" viewBox="0 0 64 64" width="512" xmlns="http://www.w3.org/2000/svg"><path d="m11.782 58.999-.6 3h-1.181c-.553 0-1 .447-1 1s.447 1 1 1h14c.553 0 1-.447 1-1s-.447-1-1-1h-1.181l-.6-3h8.78c1.654 0 3-1.346 3-3v-20.999c0-1.654-1.346-3-3-3h-27.996c-1.654 0-3 1.346-3 3v20.999c0 1.654 1.346 3 3 3zm9 3h-7.561l.6-3h6.361zm11.22-26.999v17.999h-26.998v-18.999h25.998c.552 0 1 .448 1 1zm-28.998-1v18.999h-1v-17.999c0-.552.448-1 1-1zm-1 21.999v-1h15.018c-.552 0-.994.447-.994 1s.452 1 1.005 1c.552 0 1-.447 1-1s-.448-1-1-1h14.97v1c0 .552-.448 1-1 1h-13.97-14.029c-.552 0-1-.448-1-1z"/><path d="m61.996.001h-25.992c-1.103 0-2 .897-2 2v7.998c0 .366.105.704.278 1-.173.296-.278.634-.278 1v7.998c0 .366.105.704.278 1-.173.296-.278.634-.278 1v7.998c0 1.103.897 2 2 2h25.992c1.103 0 2-.897 2-2v-7.998c0-.366-.105-.704-.278-1 .173-.296.278-.634.278-1v-7.998c0-.366-.105-.704-.278-1 .173-.296.278-.634.278-1v-7.998c0-1.103-.897-2-2-2zm0 19.996h-25.992v-7.998h25.992zm-25.992-17.996h25.992l-.003 7.998h-25.989zm25.992 27.994h-25.992v-7.998h25.992z"/><path d="m40.002 3c-1.654 0-3 1.346-3 3s1.346 3 3 3 3-1.346 3-3-1.346-3-3-3zm0 4c-.552 0-1-.448-1-1s.448-1 1-1 1 .448 1 1-.448 1-1 1z"/><path d="m51.443 4.105c-.495-.245-1.094-.047-1.342.447l-1 2c-.247.494-.047 1.095.447 1.342.144.072.297.106.447.106.367 0 .72-.202.896-.553l1-2c.247-.494.047-1.094-.448-1.342z"/><path d="m55.443 4.105c-.494-.245-1.094-.047-1.342.447l-1 2c-.247.494-.047 1.095.447 1.342.144.072.297.106.447.106.367 0 .72-.202.896-.553l1-2c.247-.494.047-1.094-.448-1.342z"/><path d="m59.443 4.105c-.494-.245-1.094-.047-1.342.447l-1 2c-.247.494-.047 1.095.447 1.342.144.072.297.106.447.106.367 0 .72-.202.896-.553l1-2c.247-.494.047-1.094-.448-1.342z"/><path d="m40.002 18.998c1.654 0 3-1.346 3-3s-1.346-3-3-3-3 1.346-3 3 1.346 3 3 3zm0-4c.552 0 1 .448 1 1s-.448 1-1 1-1-.448-1-1 .448-1 1-1z"/><path d="m49.549 17.893c.144.071.296.105.446.105.367 0 .72-.202.896-.553l1-2c.247-.494.047-1.095-.447-1.342-.495-.246-1.094-.047-1.342.447l-1 2c-.248.495-.047 1.096.447 1.343z"/><path d="m53.549 17.893c.144.071.296.105.446.105.367 0 .72-.202.896-.553l1-2c.247-.494.047-1.095-.447-1.342-.494-.246-1.094-.047-1.342.447l-1 2c-.248.495-.047 1.096.447 1.343z"/><path d="m57.549 17.893c.144.071.296.105.446.105.367 0 .72-.202.896-.553l1-2c.247-.494.047-1.095-.447-1.342-.494-.246-1.094-.047-1.342.447l-1 2c-.248.495-.047 1.096.447 1.343z"/><path d="m40.002 28.996c1.654 0 3-1.346 3-3s-1.346-3-3-3-3 1.346-3 3 1.346 3 3 3zm0-4c.552 0 1 .448 1 1s-.448 1-1 1-1-.448-1-1 .448-1 1-1z"/><path d="m49.549 27.891c.144.071.296.105.446.105.367 0 .72-.202.896-.553l1-2c.247-.494.047-1.095-.447-1.342-.495-.245-1.094-.047-1.342.447l-1 2c-.248.495-.047 1.096.447 1.343z"/><path d="m53.549 27.891c.144.071.296.105.446.105.367 0 .72-.202.896-.553l1-2c.247-.494.047-1.095-.447-1.342-.494-.245-1.094-.047-1.342.447l-1 2c-.248.495-.047 1.096.447 1.343z"/><path d="m57.549 27.891c.144.071.296.105.446.105.367 0 .72-.202.896-.553l1-2c.247-.494.047-1.095-.447-1.342-.494-.245-1.094-.047-1.342.447l-1 2c-.248.495-.047 1.096.447 1.343z"/><path d="m38.709 43.293c-.391-.391-1.023-.391-1.414 0l-1.999 1.999c-.093.092-.166.203-.217.326-.102.244-.102.52 0 .764.051.123.124.234.217.326l1.999 1.999c.195.195.451.293.707.293s.512-.098.707-.293c.391-.391.391-1.023 0-1.414l-.293-.293h10.581c.002 0 .003.001.005.001.553 0 1-.447 1-1v-12c0-.553-.447-1-1-1s-1 .447-1 1v10.999h-9.586l.293-.293c.391-.391.391-1.023 0-1.414z"/><path d="m16.002 16.998c-.553 0-1 .447-1 1v12c0 .553.447 1 1 1s1-.447 1-1v-10.999h12.59l-.293.293c-.391.391-.391 1.023 0 1.414.195.195.451.293.707.293s.512-.098.707-.293l1.999-1.999c.093-.092.166-.203.217-.326.101-.244.101-.52 0-.764-.051-.123-.124-.234-.217-.326l-1.999-1.999c-.391-.391-1.023-.391-1.414 0s-.391 1.023 0 1.414l.293.293h-13.585c-.002 0-.003-.001-.005-.001z"/><path d="m6.996 36.998h3c.553 0 1-.447 1-1s-.447-1-1-1h-3c-.553 0-1 .447-1 1s.447 1 1 1z"/><path d="m9.996 50.002h-3c-.553 0-1 .447-1 1s.447 1 1 1h3c.553 0 1-.447 1-1s-.447-1-1-1z"/><path d="m15 47.002h-7.004c-.553 0-1 .447-1 1s.447 1 1 1h7.004c.553 0 1-.447 1-1s-.447-1-1-1z"/><path d="m7.998 41.999c0 .553.447 1 1 1h14.01c.553 0 1-.447 1-1s-.447-1-1-1h-14.01c-.553 0-1 .447-1 1z"/><path d="m7.998 45.002c0 .553.447 1 1 1h19.016c.553 0 1-.447 1-1s-.447-1-1-1h-19.016c-.553 0-1 .447-1 1z"/><path d="m6.996 38.999c0 .553.447 1 1 1h11.008c.553 0 1-.447 1-1s-.447-1-1-1h-11.008c-.553 0-1 .447-1 1z"/></svg>