<svg id="icons" enable-background="new 0 0 64 64" height="512" viewBox="0 0 64 64" width="512" xmlns="http://www.w3.org/2000/svg"><path d="m63 57.502c.553 0 1-.447 1-1s-.447-1-1-1h-23c0-.553-.447-1-1-1h-3v-3c0-.553-.447-1-1-1v-3h8.002c3.859 0 7-3.141 7-7v-32.004c0-3.859-3.141-7-7-7h-22.004c-3.859 0-7 3.141-7 7v32.004c0 3.859 3.141 7 7 7h8.002v3c-.553 0-1 .447-1 1v3h-3c-.553 0-1 .447-1 1h-23c-.553 0-1 .447-1 1s.447 1 1 1h23v2h-23c-.553 0-1 .447-1 1s.447 1 1 1h23c0 .553.447 1 1 1h14c.553 0 1-.447 1-1h23c.553 0 1-.447 1-1s-.447-1-1-1h-23v-2zm-42.002-54.004h22.004c2.757 0 5 2.243 5 5s-2.243 5-5 5h-22.004c-2.757 0-5-2.243-5-5s2.243-5 5-5zm0 12h22.004c1.958 0 3.729-.811 5-2.11v3.112c0 2.757-2.243 5-5 5h-22.004c-2.757 0-5-2.243-5-5v-3.112c1.272 1.3 3.042 2.11 5 2.11zm0 8.002h22.004c1.958 0 3.729-.811 5-2.11v3.11c0 2.757-2.243 5-5 5h-22.004c-2.757 0-5-2.243-5-5v-3.11c1.272 1.299 3.042 2.11 5 2.11zm0 8h22.004c1.958 0 3.729-.811 5-2.11v3.112c0 2.757-2.243 5-5 5h-22.004c-2.757 0-5-2.243-5-5v-3.112c1.272 1.299 3.042 2.11 5 2.11zm-5 9.002v-3.11c1.271 1.3 3.042 2.11 5 2.11h22.004c1.958 0 3.729-.811 5-2.11v3.11c0 2.757-2.243 5-5 5h-22.004c-2.757 0-5-2.243-5-5zm15.002 7h2v3h-2zm-5 9h3c.553 0 1-.447 1-1v-3h4v3c0 .553.447 1 1 1h3v4h-12z"/></svg>