<svg id="icons" enable-background="new 0 0 64 64" height="512" viewBox="0 0 64 64" width="512" xmlns="http://www.w3.org/2000/svg"><path d="m4.001 39.004c.007 0 .013-.004.02-.004h18.983c.553 0 1-.447 1-1s-.447-1-1-1h-18.003v-27.985h31.993v.001c0 .031.015.057.018.087v13.895c0 .553.447 1 1 1s1-.447 1-1v-14.983c0-.031-.015-.057-.018-.087v-.912c0-1.654-1.346-3-3-3h-33c-1.654 0-3 1.346-3 3v2c0 .031.015.057.018.087v28.897c0 .553.447 1 1 1h2.97c.006 0 .012.004.019.004zm-1.007-32.988h33c.552 0 .999.447 1 .999h-35c.001-.552.448-.999 1-.999zm-.982 2.999h.989v27.985h-.989z"/><path d="m29.004 13.02c0-.553-.447-1-1-1h-20.003c-.553 0-1 .447-1 1s.447 1 1 1h20.003c.553 0 1-.448 1-1z"/><path d="m25.004 17.02c0-.553-.447-1-1-1h-14.003c-.553 0-1 .447-1 1s.447 1 1 1h14.003c.553 0 1-.448 1-1z"/><path d="m22.002 29.017c0-.553-.447-1-1-1h-11.001c-.553 0-1 .447-1 1s.447 1 1 1h11.001c.553 0 1-.448 1-1z"/><path d="m28.004 18.02h2c.553 0 1-.447 1-1s-.447-1-1-1h-2c-.553 0-1 .447-1 1s.447 1 1 1z"/><path d="m8.001 32.003c-.553 0-1 .447-1 1s.447 1 1 1h6c.553 0 1-.447 1-1s-.447-1-1-1z"/><path d="m22.994 25.016c0-.553-.447-1-1-1h-9.993c-.553 0-1 .447-1 1s.447 1 1 1h9.993c.553 0 1-.448 1-1z"/><path d="m12.001 22.014h5.989c.553 0 1-.447 1-1s-.447-1-1-1h-5.989c-.553 0-1 .447-1 1s.447 1 1 1z"/><path d="m63.988 28c0-1.654-1.346-3-3-3h-19.973c-.553 0-1 .447-1 1s.447 1 1 1h19.974c.552 0 .999.447 1 .999h-20.974c-.553 0-1 .447-1 1s.447 1 1 1h20.974v.001c0 .031.015.057.018.087v27.897h-32.007v-16.965c0-.553-.447-1-1-1s-1 .447-1 1v16.966h-.993v-16.974c0-.553-.447-1-1-1s-1 .447-1 1v17.974c0 .553.447 1 1 1h36.999c.553 0 1-.447 1-1v-29.986c0-.031-.015-.057-.018-.087z"/><path d="m53.003 33h-11.995c-.553 0-1 .447-1 1s.447 1 1 1h11.995c.553 0 1-.447 1-1s-.447-1-1-1z"/><path d="m49.003 37h-7.997c-.553 0-1 .447-1 1s.447 1 1 1h7.997c.553 0 1-.447 1-1s-.447-1-1-1z"/><path d="m47.001 49.997c0-.553-.447-1-1-1h-11.001c-.553 0-1 .447-1 1s.447 1 1 1h11.001c.553 0 1-.447 1-1z"/><path d="m52.003 38c0 .553.447 1 1 1h2c.553 0 1-.447 1-1s-.447-1-1-1h-2c-.553 0-1 .447-1 1z"/><path d="m33 54.983h6c.553 0 1-.447 1-1s-.447-1-1-1h-6c-.553 0-1 .447-1 1s.447 1 1 1z"/><path d="m49.995 45.996c0-.553-.447-1-1-1h-11.995c-.553 0-1 .447-1 1s.447 1 1 1h11.995c.553 0 1-.447 1-1z"/><path d="m36 41.994c0 .553.447 1 1 1h5.989c.553 0 1-.447 1-1s-.447-1-1-1h-5.989c-.553 0-1 .447-1 1z"/><path d="m26.032 36.014c.552 0 1-.447 1-1s-.448-1-1-1h-.011c-.552 0-.994.447-.994 1s.452 1 1.005 1z"/><path d="m35.035 37h-.011c-.552 0-.994.447-.994 1s.452 1 1.005 1c.552 0 1-.447 1-1s-.448-1-1-1z"/><path d="m38.038 39c.552 0 1-.447 1-1s-.448-1-1-1h-.011c-.552 0-.994.447-.994 1s.452 1 1.005 1z"/><path d="m32.033 39c.552 0 1-.447 1-1s-.448-1-1-1h-.011c-.552 0-.994.447-.994 1s.452 1 1.005 1z"/><path d="m29.03 39c.552 0 1-.447 1-1s-.448-1-1-1h-.01c-.552 0-.994.447-.994 1s.452 1 1.004 1z"/><path d="m26.033 39c.552 0 1-.447 1-1s-.448-1-1-1h-.011c-.552 0-.994.447-.994 1s.452 1 1.005 1z"/><path d="m26.032 31.011h-.011c-.552 0-.994.447-.994 1s.452 1 1.005 1c.552 0 1-.447 1-1s-.448-1-1-1z"/><path d="m26.032 28.008h-.011c-.552 0-.994.447-.994 1s.452 1 1.005 1c.552 0 1-.447 1-1s-.448-1-1-1z"/><path d="m29.035 25.005h-.011c-.552 0-.994.447-.994 1s.452 1 1.005 1c.552 0 1-.447 1-1s-.448-1-1-1z"/><path d="m26.032 25.005h-.011c-.552 0-.994.447-.994 1s.452 1 1.005 1c.552 0 1-.447 1-1s-.448-1-1-1z"/><path d="m32.038 27.005c.552 0 1-.447 1-1s-.448-1-1-1h-.011c-.552 0-.994.447-.994 1s.452 1 1.005 1z"/><path d="m35.041 25.005h-.011c-.552 0-.994.447-.994 1s.452 1 1.005 1c.552 0 1-.447 1-1s-.448-1-1-1z"/><path d="m38.044 27.005c.552 0 1-.447 1-1s-.448-1-1-1h-.011c-.552 0-.994.447-.994 1s.452 1 1.005 1z"/><path d="m38.044 30.008c.552 0 1-.447 1-1s-.448-1-1-1h-.011c-.552 0-.994.447-.994 1s.452 1 1.005 1z"/><path d="m38.044 33.011c.552 0 1-.447 1-1s-.448-1-1-1h-.011c-.552 0-.994.447-.994 1s.452 1 1.005 1z"/><path d="m38.044 36.014c.552 0 1-.447 1-1s-.448-1-1-1h-.011c-.552 0-.994.447-.994 1s.452 1 1.005 1z"/><path d="m32.002 35.013c.553 0 1-.447 1-1v-.999h.997c.553 0 1-.447 1-1s-.447-1-1-1h-.997v-.999c0-.553-.447-1-1-1s-1 .447-1 1v.999h-.997c-.553 0-1 .447-1 1s.447 1 1 1h.997v.999c0 .552.447 1 1 1z"/></svg>