<svg id="icons" enable-background="new 0 0 64 64" height="512" viewBox="0 0 64 64" width="512" xmlns="http://www.w3.org/2000/svg"><path d="m14.012 47.001h-6c-.553 0-1 .447-1 1s.447 1 1 1h6c.553 0 1-.447 1-1s-.448-1-1-1z"/><path d="m12.012 29.001h4c.553 0 1-.447 1-1s-.447-1-1-1h-4c-.553 0-1 .447-1 1s.447 1 1 1z"/><path d="m12.012 41.001h3c.553 0 1-.447 1-1s-.447-1-1-1h-3c-.553 0-1 .447-1 1s.447 1 1 1z"/><path d="m51.016 23.001h-2c-.553 0-1 .447-1 1s.447 1 1 1h2c.553 0 1-.447 1-1s-.448-1-1-1z"/><path d="m58.016 31.001h-4c-.553 0-1 .447-1 1s.447 1 1 1h4c.553 0 1-.447 1-1s-.448-1-1-1z"/><path d="m22.739 52.614 1.94-1.94c.391-.391.391-1.023 0-1.414l-1.291-1.291 1.291-1.291c.391-.391.391-1.023 0-1.414l-1.291-1.291 1.291-1.291c.391-.391.391-1.023 0-1.414l-1.291-1.291 1.291-1.291c.391-.391.391-1.023 0-1.414l-1.291-1.291 1.291-1.291c.391-.391.391-1.023 0-1.414l-1.291-1.291 1.291-1.291c.391-.391.391-1.023 0-1.414l-1.291-1.291 1.291-1.291c.391-.391.391-1.023 0-1.414l-1.291-1.291 1.291-1.291c.391-.391.391-1.023 0-1.414l-1.291-1.291 1.291-1.291c.391-.391.391-1.023 0-1.414l-1.29-1.292 1.291-1.291c.391-.391.391-1.023 0-1.414l-1.997-1.996c-.092-.093-.203-.166-.326-.217-.122-.051-.252-.077-.382-.077h-18.967c-1.654 0-3 1.346-3 3v2c0 .031.015.057.018.087v35.903c0 .553.447 1 1 1h20.947c.314 0 .584-.154.766-.381zm-20.714-35.609h.986v33.99h-.986zm2.987 0h16.553l.994.993-1.003 1.003h-13.544c-.553 0-1 .447-1 1s.447 1 1 1h13.553l.994.993-1.007 1.007h-11.54c-.553 0-1 .447-1 1s.447 1 1 1h11.557l.99.989-1.011 1.011h-1.536c-.553 0-1 .447-1 1s.447 1 1 1h1.561l.986.985-1.015 1.015h-9.532c-.553 0-1 .447-1 1s.447 1 1 1h9.564l.982.981-1.122 1.122c-.131-.063-.272-.104-.427-.104h-8.998c-.553 0-1 .447-1 1s.447 1 1 1h8.998c.165 0 .313-.05.45-.12l1.099 1.098-1.022 1.022h-2.524c-.553 0-1 .447-1 1s.447 1 1 1h2.572l.975.974-1.034 1.034h-9.513c-.553 0-1 .447-1 1s.447 1 1 1h9.584l.963.962-1.293 1.293c-.391.391-.391 1.023 0 1.414.003.003.006.003.009.006l1.284 1.283-1.028 1.028h-16.519zm-2.004-4h1.02c-.552 0-.994.447-.994 1s.452 1 1.005 1c.552 0 1-.447 1-1s-.448-1-1-1h2.989c-.552 0-.994.447-.994 1s.452 1 1.005 1c.552 0 1-.447 1-1s-.448-1-1-1h2.989c-.552 0-.994.447-.994 1s.452 1 1.005 1c.552 0 1-.447 1-1s-.448-1-1-1h11.522l.998.997-1.003 1.003h-11.518-3-3-.007c-.007 0-.013-.004-.02-.004s-.013.004-.02.004h-1.983v-1c0-.552.448-1 1-1z"/><path d="m63.975 15.915v-1.91c0-1.654-1.346-3-3-3h-20.995c-.13 0-.26.026-.382.077-.245.102-.439.296-.541.541-.102.244-.102.52 0 .764.051.123.124.234.217.326l1.29 1.289-1.292 1.292c-.093.092-.166.203-.217.326-.102.244-.102.52 0 .764.052.126.13.238.226.333l1.283 1.281-1.293 1.293c-.391.391-.391 1.023 0 1.414.003.003.006.003.009.006l1.284 1.283-1.293 1.293c-.391.391-.391 1.023 0 1.414.003.003.006.003.009.006l1.284 1.283-1.293 1.293c-.391.391-.391 1.023 0 1.414.003.003.006.003.009.006l1.284 1.283-1.293 1.293c-.391.391-.391 1.023 0 1.414.003.003.006.003.009.006l1.284 1.283-1.293 1.293c-.391.391-.391 1.023 0 1.414.003.003.006.003.009.006l1.284 1.283-1.293 1.293c-.391.391-.391 1.023 0 1.414.003.003.006.003.009.006l1.284 1.283-1.293 1.293c-.391.391-.391 1.023 0 1.414.003.003.006.003.009.006l1.284 1.283-1.293 1.293c-.391.391-.391 1.023 0 1.414.003.003.006.003.009.006l1.284 1.283-1.293 1.293c-.199.199-.294.461-.29.722 0 .005-.003.009-.003.014 0 .553.447 1 1 1h23.014c.553 0 1-.447 1-1v-35.99c0-.001 0-.001 0-.001 0-.001 0-.001 0-.002 0-.031-.014-.057-.017-.087zm-21.289 34.759c.391-.391.391-1.023 0-1.414l-1.291-1.291 1.291-1.291c.391-.391.391-1.023 0-1.414l-.255-.255h6.595c.553 0 1-.447 1-1s-.447-1-1-1h-6.667l.327-.327c.391-.391.391-1.023 0-1.414l-.267-.267h9.599c.553 0 1-.447 1-1s-.447-1-1-1h-9.648l.315-.315c.391-.391.391-1.023 0-1.414l-1.291-1.291 1.291-1.291c.391-.391.391-1.023 0-1.414l-.274-.274h7.604c.553 0 1-.447 1-1s-.447-1-1-1h-7.638l.308-.308c.391-.391.391-1.023 0-1.414l-.278-.278h13.608c.553 0 1-.447 1-1s-.447-1-1-1h-13.633l.304-.304c.391-.391.391-1.023 0-1.414l-.282-.282h2.612c.553 0 1-.447 1-1s-.447-1-1-1h-2.63l.3-.3c.391-.391.391-1.023 0-1.414l-.286-.286h.618c.553 0 1-.447 1-1s-.447-1-1-1h-.628l.296-.296c.391-.391.391-1.023 0-1.414l-.289-.289h19.596v33.993h-19.629zm18.289-37.669c.552 0 1 .448 1 1v.997h-19.582l.293-.293c.391-.391.391-1.023 0-1.414l-.29-.29z"/><path d="m31.979 38.001c3.309 0 6-2.691 6-6s-2.691-6-6-6-6 2.691-6 6 2.691 6 6 6zm0-10c2.206 0 4 1.794 4 4s-1.794 4-4 4-4-1.794-4-4 1.793-4 4-4z"/><path d="m31.949 32.995c-.527.026-.945.455-.945.99 0 .553.452 1 1.005 1 .552 0 1-.447 1-1 0-.544-.437-.981-.977-.995.526-.029.946-.456.946-.989v-1.844c0-.553-.447-1-1-1s-1 .447-1 1v1.844c.001.542.433.978.971.994z"/></svg>