<svg id="icons" enable-background="new 0 0 64 64" height="512" viewBox="0 0 64 64" width="512" xmlns="http://www.w3.org/2000/svg"><path d="m21.002 34.513h9.994c.553 0 1-.447 1-1s-.447-1-1-1h-9.994c-.553 0-1 .447-1 1s.447 1 1 1z"/><path d="m22.002 37.513c0 .553.447 1 1 1h10.994c.553 0 1-.447 1-1s-.447-1-1-1h-10.994c-.553 0-1 .447-1 1z"/><path d="m31.002 48.517h-8c-.553 0-1 .447-1 1s.447 1 1 1h8c.553 0 1-.447 1-1s-.447-1-1-1z"/><path d="m37.996 38.513h2c.553 0 1-.447 1-1s-.447-1-1-1h-2c-.553 0-1 .447-1 1s.447 1 1 1z"/><path d="m26.002 52.505h-5c-.553 0-1 .447-1 1s.447 1 1 1h5c.553 0 1-.447 1-1s-.447-1-1-1z"/><path d="m25.002 40.513c-.553 0-1 .447-1 1s.447 1 1 1h3c.553 0 1-.447 1-1s-.447-1-1-1z"/><path d="m31.002 41.513c0 .553.447 1 1 1h11.994c.553 0 1-.447 1-1s-.447-1-1-1h-11.994c-.553 0-1 .447-1 1z"/><path d="m38.996 44.513h-13.994c-.553 0-1 .447-1 1s.447 1 1 1h13.994c.553 0 1-.447 1-1s-.447-1-1-1z"/><path d="m45.996 44.513h-3c-.553 0-1 .447-1 1s.447 1 1 1h3c.553 0 1-.447 1-1s-.447-1-1-1z"/><path d="m58.013 42.514h-.011c-.552 0-.994.447-.994 1s.452 1 1.005 1c.552 0 1-.447 1-1s-.449-1-1-1z"/><path d="m57.982 35.514c-2.968 0-5.433 2.167-5.91 5.001l-1.102-.001v-10.997c0-.031-.015-.057-.018-.087v-1.913c0-1.654-1.346-3-3-3h-31.954c-1.654 0-3 1.346-3 3v2c0 .031.015.057.018.087v18.914h-1.088c-.478-2.834-2.942-5.001-5.91-5.001-3.309 0-6 2.691-6 5.999s2.69 6 5.998 6.001c2.967 0 5.432-2.166 5.911-4.999h1.089v6.981c0 .553.447 1 1 1h35.955c.553 0 1-.447 1-1v-14.985l1.103.001c.479 2.833 2.944 4.999 5.911 4.999 3.308-.001 5.998-2.693 5.998-6.001s-2.692-5.999-6.001-5.999zm-51.966 18.003c-2.204-.001-3.998-1.796-3.998-4.001s1.794-3.999 4-3.999 4 1.794 4 3.998c0 2.207-1.795 4.002-4.002 4.002zm9.982-27h1.02c-.552 0-.994.447-.994 1s.452 1 1.005 1c.552 0 1-.447 1-1s-.448-1-1-1h2.989c-.552 0-.994.447-.994 1s.452 1 1.005 1c.552 0 1-.447 1-1s-.448-1-1-1h2.989c-.552 0-.994.447-.994 1s.452 1 1.005 1c.552 0 1-.447 1-1s-.448-1-1-1h24.925c.552 0 1 .448 1 1v1h-25.926-3-3-.007c-.007 0-.013-.004-.02-.004s-.013.004-.02.004h-1.984v-1c.001-.552.449-1 1.001-1zm-.982 4h.986v18.933c-.037-.52-.459-.933-.986-.933zm0 20c.528 0 .949-.414.986-.933v6.915h-.986zm2.986 5.982v-25.982h30.969v10c-.545.008-.986.449-.986.997 0 .547.44.989.986.997v13.988zm39.982-10.985c-2.207 0-4.002-1.795-4.002-4.002 0-2.204 1.794-3.998 4-3.998s4 1.794 4 3.999-1.794 4-3.998 4.001z"/><path d="m57.984 42.514c.554-.001 1.001-.448 1-1.001l-.002-2c-.001-.552-.448-.999-1-.999h-.001c-.553.001-1 .448-.999 1.001l.002 2c.001.551.449.999 1 .999z"/><path d="m6.048 50.517h-.011c-.552 0-.994.447-.994 1s.452 1 1.005 1c.552 0 1-.447 1-1s-.448-1-1-1z"/><path d="m6.015 50.517c.553 0 1-.447 1.001-.999l.002-2c.001-.553-.446-1-.999-1.001h-.001c-.552 0-.999.447-1 .999l-.002 2c-.001.552.446 1 .999 1.001z"/><path d="m31.982 8.502c-2.757 0-5 2.243-5 5s2.243 5 5 5 5-2.243 5-5-2.243-5-5-5zm0 8c-1.654 0-3-1.346-3-3s1.346-3 3-3 3 1.346 3 3-1.345 3-3 3z"/><path d="m31.984 5.501c-5.057 0-9.69 2.977-11.808 7.583-.121.265-.121.569 0 .834 2.117 4.606 6.751 7.583 11.808 7.583 5.054 0 9.688-2.977 11.807-7.582.122-.266.122-.57 0-.836-2.118-4.605-6.753-7.582-11.807-7.582zm0 14c-4.123 0-7.914-2.34-9.787-6 1.873-3.66 5.664-6 9.787-6 4.121 0 7.913 2.34 9.787 6-1.874 3.66-5.666 6-9.787 6z"/></svg>