<svg id="icons" enable-background="new 0 0 64 64" height="512" viewBox="0 0 64 64" width="512" xmlns="http://www.w3.org/2000/svg"><path d="m8 15h17c.553 0 1-.447 1-1s-.447-1-1-1h-17c-.553 0-1 .447-1 1s.447 1 1 1z"/><path d="m22 18c0-.553-.447-1-1-1h-11c-.553 0-1 .447-1 1s.447 1 1 1h11c.553 0 1-.447 1-1z"/><path d="m20 37.012h-10c-.553 0-1 .447-1 1s.447 1 1 1h10c.553 0 1-.447 1-1s-.447-1-1-1z"/><path d="m24 18c0 .553.447 1 1 1h8.006c.553 0 1-.447 1-1s-.447-1-1-1h-8.006c-.553 0-1 .447-1 1z"/><path d="m14 41h-6c-.553 0-1 .447-1 1s.447 1 1 1h6c.553 0 1-.447 1-1s-.447-1-1-1z"/><path d="m12 21c-.553 0-1 .447-1 1s.447 1 1 1h4c.553 0 1-.447 1-1s-.447-1-1-1z"/><path d="m19 22c0 .553.447 1 1 1h23.013c.553 0 1-.447 1-1s-.447-1-1-1h-23.013c-.553 0-1 .447-1 1z"/><path d="m36.007 25h-24.007c-.553 0-1 .447-1 1s.447 1 1 1h24.007c.553 0 1-.447 1-1s-.447-1-1-1z"/><path d="m24 30c0-.553-.447-1-1-1h-11c-.553 0-1 .447-1 1s.447 1 1 1h11c.553 0 1-.447 1-1z"/><path d="m34.006 33h-16.006c-.553 0-1 .447-1 1s.447 1 1 1h16.006c.553 0 1-.447 1-1s-.447-1-1-1z"/><path d="m12 33c-.553 0-1 .447-1 1s.447 1 1 1h2c.553 0 1-.447 1-1s-.447-1-1-1z"/><path d="m53.006 31.051v-21.051-2c0-1.654-1.346-3-3-3h-47.006c-1.654 0-3 1.346-3 3v2 36c0 .553.447 1 1 1h39c0 4.265 2.242 8.006 5.604 10.135.003.002.005.004.008.006 1.852 1.171 4.038 1.859 6.388 1.859 2.349 0 4.536-.688 6.389-1.859.003-.002.006-.004.009-.006 3.36-2.129 5.602-5.87 5.602-10.135v-4c0-6.277-4.847-11.436-10.994-11.949zm-50.006-24.051h1.02c-.552 0-.995.447-.995 1s.453 1 1.005 1 1-.447 1-1-.448-1-1-1h2.99c-.552 0-.995.447-.995 1s.453 1 1.005 1 1-.447 1-1-.448-1-1-1h2.989c-.551 0-.994.447-.994 1s.452 1 1.005 1c.552 0 1-.447 1-1s-.448-1-1-1h39.976c.552 0 1 .448 1 1v1h-40.976-3-3-2.03v-1c0-.552.448-1 1-1zm-1 4h1v34h-1zm3 34v-34h46.006v20.051c-6.152.508-11.006 5.668-11.006 11.949v2zm37.643 5.493c.68.849 1.475 1.597 2.357 2.233v1.402c-1.033-1.014-1.84-2.253-2.357-3.635zm14.357 3.402v1.752c-1.2.697-2.553 1.158-4 1.303v-2c1.418-.118 2.764-.485 4-1.055zm-6 3.054c-1.447-.145-2.8-.605-4-1.303v-1.752c1.236.57 2.582.938 4 1.055zm8-2.82v-1.402c.883-.637 1.678-1.385 2.357-2.233-.517 1.381-1.324 2.62-2.357 3.635zm-7-1.129c-5.514 0-10-4.486-10-10 0-5.505 4.473-9.984 9.974-9.999.012.001.021.007.032.007s.02-.006.029-.006c5.498.019 9.965 4.496 9.965 9.998 0 5.514-4.486 10-10 10z"/><path d="m52 37.999c-.553 0-1 .447-1 1v8.002c0 .553.447 1 1 1s1-.447 1-1v-8.002c0-.553-.447-1-1-1z"/></svg>