<svg id="icons" enable-background="new 0 0 64 64" height="512" viewBox="0 0 64 64" width="512" xmlns="http://www.w3.org/2000/svg"><path d="m20.999 35.005c-1.649 0-2.995 1.341-3.001 2.989-.003.802.307 1.557.872 2.125.564.568 1.317.883 2.118.886h.011c1.648 0 2.993-1.341 2.999-2.989.006-1.655-1.335-3.005-2.999-3.011zm0 4v1l-.003-1c-.268-.001-.52-.105-.708-.296-.188-.189-.291-.44-.29-.707.002-.55.451-.997 1.004-.997.552.002.998.452.996 1.003-.002.55-.45.997-.999.997z"/><path d="m35.548 39.882c.145.073.298.107.449.107.365 0 .718-.201.894-.55l1.008-1.997c.249-.493.051-1.094-.442-1.343s-1.094-.051-1.343.442l-1.008 1.997c-.25.494-.051 1.095.442 1.344z"/><path d="m39.547 39.896c.145.073.299.107.45.107.365 0 .718-.201.894-.549l1.008-1.996c.249-.493.051-1.095-.441-1.344s-1.095-.05-1.344.441l-1.008 1.996c-.25.494-.051 1.095.441 1.345z"/><path d="m43.548 39.91c.145.073.298.107.449.107.365 0 .718-.201.894-.55l1.008-1.997c.249-.493.051-1.094-.442-1.343-.492-.249-1.094-.051-1.343.442l-1.008 1.997c-.25.495-.051 1.095.442 1.344z"/><path d="m20.988 51.003h.011c1.648 0 2.993-1.341 2.999-2.989.006-1.654-1.335-3.005-2.999-3.011-1.649 0-2.995 1.341-3.001 2.989-.003.802.307 1.557.872 2.125.565.569 1.318.883 2.118.886zm.014-4c.552.002.998.452.996 1.003-.002.55-.45.997-.999.997v1l-.003-1c-.268-.001-.52-.105-.708-.296-.188-.189-.291-.44-.29-.707.002-.55.451-.997 1.004-.997z"/><path d="m35.548 49.88c.145.073.298.107.449.107.365 0 .718-.201.894-.55l1.008-1.997c.249-.493.051-1.094-.442-1.343-.493-.248-1.094-.051-1.343.442l-1.008 1.997c-.25.494-.051 1.095.442 1.344z"/><path d="m39.547 49.894c.145.073.299.107.45.107.365 0 .718-.201.894-.549l1.008-1.996c.249-.493.051-1.095-.441-1.344-.492-.25-1.095-.05-1.344.441l-1.008 1.996c-.25.494-.051 1.096.441 1.345z"/><path d="m43.548 49.908c.145.073.298.107.449.107.365 0 .718-.201.894-.55l1.008-1.997c.249-.493.051-1.094-.442-1.343-.492-.248-1.094-.05-1.343.442l-1.008 1.997c-.25.495-.051 1.095.442 1.344z"/><path d="m20.999 55.001c-1.649 0-2.995 1.341-3.001 2.989-.003.802.307 1.557.872 2.125.564.568 1.317.883 2.118.886h.011c1.648 0 2.993-1.341 2.999-2.989.006-1.655-1.335-3.005-2.999-3.011zm0 4v1l-.003-1c-.268-.001-.52-.105-.708-.296-.188-.189-.291-.44-.29-.707.002-.55.451-.997 1.004-.997.552.002.998.452.996 1.003-.002.55-.45.997-.999.997z"/><path d="m37.456 56.096c-.493-.249-1.094-.05-1.343.442l-1.008 1.997c-.249.493-.051 1.094.442 1.343.145.073.298.107.449.107.365 0 .718-.201.894-.55l1.008-1.997c.249-.493.051-1.093-.442-1.342z"/><path d="m41.457 56.11c-.492-.249-1.095-.051-1.344.441l-1.008 1.996c-.249.493-.051 1.095.441 1.344.145.073.299.107.45.107.365 0 .718-.201.894-.549l1.008-1.996c.249-.492.051-1.094-.441-1.343z"/><path d="m45.456 56.124c-.492-.249-1.094-.05-1.343.442l-1.008 1.997c-.249.493-.051 1.094.442 1.343.145.073.298.107.449.107.365 0 .718-.201.894-.55l1.008-1.997c.249-.492.051-1.093-.442-1.342z"/><path d="m6.002 9.004h9.994c.553 0 1-.447 1-1s-.447-1-1-1h-9.994c-.553 0-1 .447-1 1s.447 1 1 1z"/><path d="m7.002 12.004c0 .553.447 1 1 1h9.994c.553 0 1-.447 1-1s-.447-1-1-1h-9.994c-.553 0-1 .447-1 1z"/><path d="m21.996 13.004h.998c.553 0 1-.447 1-1s-.447-1-1-1h-.998c-.553 0-1 .447-1 1s.447 1 1 1z"/><path d="m11.002 18.988h-5c-.553 0-1 .447-1 1s.447 1 1 1h5c.553 0 1-.447 1-1s-.447-1-1-1z"/><path d="m7 16c0 .553.447 1 1 1h11.992c.553 0 1-.447 1-1s-.447-1-1-1h-11.992c-.553 0-1 .447-1 1z"/><path d="m59.996 0c-.002 0-.003.001-.005.001h-21.985c-1.654 0-3 1.346-3 2.999v.001 1.002 19.989c0 .553.447 1 1 1h11.99v2.008h-31.998v-2.008h11.996c.553 0 1-.447 1-1v-19.989-1.002s0 0 0-.001c0-1.654-1.346-3-3-3-.002 0-.003.001-.005.001h-21.987c-1.653 0-2.998 1.346-2.998 2.999v.001 1.002 19.989c0 .553.447 1 1 1h11.994v3.008c0 .553.447 1 1 1h16v3.006h-14c-1.654 0-3 1.346-3 3v5.998c0 .771.301 1.468.78 2-.479.532-.78 1.229-.78 2v5.998c0 .771.301 1.468.78 2-.479.532-.78 1.229-.78 2v5.998c0 1.654 1.346 3 3 3h30c1.654 0 3-1.346 3-3v-5.998c0-.771-.301-1.468-.78-2 .479-.532.78-1.229.78-2v-5.998c0-.771-.301-1.468-.78-2 .479-.532.78-1.229.78-2v-5.998c0-1.654-1.346-3-3-3h-14v-3.006h15.998c.553 0 1-.447 1-1v-3.008h12c.553 0 1-.447 1-1v-19.989-1.002s0 0 0-.001c0-1.654-1.346-3-3-3zm-56.992 3c0-.551.447-.999.998-.999h21.992c.001 0 .002-.001.002-.001.551.002.998.449.998 1v.001.002h-23.99v-.003c0 .001 0 .001 0 0zm0 2.003h23.99v17.989h-23.99zm44.994 40.001v5.998c0 .552-.448 1-1 1h-30c-.552 0-1-.448-1-1v-5.998c0-.552.448-1 1-1h30c.552 0 1 .448 1 1zm0 15.996c0 .552-.448 1-1 1h-30c-.552 0-1-.448-1-1v-5.998c0-.552.448-1 1-1h30c.552 0 1 .448 1 1zm0-25.994v5.998c0 .552-.448 1-1 1h-30c-.552 0-1-.448-1-1v-5.998c0-.552.448-1 1-1h30c.552 0 1 .448 1 1zm-9.992-33.005h21.99c.001 0 .002-.001.002-.001.551.002.998.449.998 1v.001.002h-23.99v-.002s0 0 0-.001c0-.551.448-.999 1-.999zm22.99 20.991h-23.99v-17.989h23.99z"/><path d="m40.006 9.004h9.994c.553 0 1-.447 1-1s-.447-1-1-1h-9.994c-.553 0-1 .447-1 1s.447 1 1 1z"/><path d="m41.006 12.004c0 .553.447 1 1 1h9.992c.553 0 1-.447 1-1s-.447-1-1-1h-9.992c-.553 0-1 .447-1 1z"/><path d="m55.998 13.004h1c.553 0 1-.447 1-1s-.447-1-1-1h-1c-.553 0-1 .447-1 1s.447 1 1 1z"/><path d="m40.006 20.988h5c.553 0 1-.447 1-1s-.447-1-1-1h-5c-.553 0-1 .447-1 1s.447 1 1 1z"/><path d="m41.004 16c0 .553.447 1 1 1h11.992c.553 0 1-.447 1-1s-.447-1-1-1h-11.992c-.553 0-1 .447-1 1z"/></svg>