<svg id="icons" enable-background="new 0 0 64 64" height="512" viewBox="0 0 64 64" width="512" xmlns="http://www.w3.org/2000/svg"><path d="m22.587 43.498-4.585.002c-4.964 0-9.002 4.038-9.002 9.002l.001 6.996c0 1.103.897 2 2 2h41.999c1.103 0 2-.897 2-2v-6.998c0-4.963-4.037-9-9-9h-4.585l-1.415-1.416v-1.596h13.005c.553 0 1-.447 1-1 0-.055-.004-.107-.013-.16v-31.827-2c0-1.654-1.346-3-3-3h-37.997c-1.654 0-3 1.346-3 3v2 31.987c0 .553.447 1 1 1h13.005v1.596zm9.413 1.143 1.444.797-.905 1.062h-1.078l-.905-1.063zm8.297.569 1.289 1.29-3.293 3.291c-.391.391-.391 1.023 0 1.414l1.387 1.387-5.18 6.906h-1.039l2.575-6.621s0 0 .001-.001l3.339-8.587.914.914c.002.002.005.005.007.007zm-10.797 14.288-5.18-6.906 1.387-1.387c.391-.391.391-1.023 0-1.414l-3.293-3.291 1.294-1.295h.001l.915-.916 3.339 8.585 2.576 6.624zm2.163-10.998h.675l1.694 4.016-2.032 5.224-2.032-5.227zm3.409 1.339-.911-2.16 1.07-1.256.963.531zm-6.303-3.416 1.07 1.256-.912 2.159-1.121-2.884zm-10.767-.923 2.585-.001-.294.294c-.391.391-.391 1.023 0 1.414l3.293 3.291-1.293 1.293c-.031.031-.045.072-.071.107-.042.054-.081.105-.11.166-.028.058-.045.115-.062.177-.017.063-.032.123-.036.188-.005.063.002.124.01.188.007.063.016.124.036.187.021.063.052.121.086.181.021.037.028.079.055.114l4.8 6.4h-16l-.001-6.997c0-3.861 3.141-7.002 7.002-7.002zm27.998 0c3.859 0 7 3.141 7 7v6.998h-16l4.8-6.4c.026-.035.033-.077.055-.114.034-.06.065-.117.086-.181.021-.063.029-.123.036-.187.008-.063.015-.124.01-.188-.004-.064-.02-.125-.036-.188-.017-.062-.033-.119-.062-.177-.029-.061-.068-.112-.11-.166-.026-.035-.04-.076-.071-.107l-1.293-1.293 3.293-3.291c.391-.391.391-1.023 0-1.414l-.294-.292zm5.992-7.012h-36.997v-29.987h36.997zm-38.997-33.987h1.02c-.552 0-.994.448-.994 1s.452 1 1.005 1c.552 0 1-.448 1-1s-.448-1-1-1h2.989c-.552 0-.994.448-.994 1s.452 1 1.005 1c.552 0 1-.448 1-1s-.448-1-1-1h2.989c-.552 0-.994.448-.994 1s.452 1 1.005 1c.552 0 1-.448 1-1s-.448-1-1-1h30.967c.552 0 1 .449 1 1v1h-31.968-3-3-2.03v-1c0-.551.448-1 1-1zm-1 4h1v29.987h-1zm26.005 31.987v1.823l-1.073 2.761-4.443-2.45c-.033-.019-.07-.019-.104-.032-.063-.026-.124-.047-.19-.061-.063-.012-.124-.017-.188-.017-.063 0-.124.005-.188.017-.066.014-.128.034-.19.06-.034.015-.071.015-.105.033l-4.443 2.45-1.076-2.76v-1.823h12z"/><path d="m17.995 12.501h21.004c.553 0 1-.448 1-1s-.447-1-1-1h-21.004c-.553 0-1 .448-1 1s.447 1 1 1z"/><path d="m35.999 15.501c0-.552-.447-1-1-1h-15.004c-.553 0-1 .448-1 1s.447 1 1 1h15.004c.553 0 1-.447 1-1z"/><path d="m33.999 30.502h-14.004c-.553 0-1 .448-1 1s.447 1 1 1h14.004c.553 0 1-.448 1-1s-.447-1-1-1z"/><path d="m37.999 15.501c0 .552.447 1 1 1h2c.553 0 1-.448 1-1s-.447-1-1-1h-2c-.553 0-1 .448-1 1z"/><path d="m23.995 34.488h-6c-.553 0-1 .447-1 1s.447 1 1 1h6c.553 0 1-.447 1-1s-.447-1-1-1z"/><path d="m20.995 23.498c0 .552.447 1 1 1h21.004c.553 0 1-.448 1-1s-.447-1-1-1h-21.004c-.553 0-1 .447-1 1z"/><path d="m21.995 18.496c-.553 0-1 .448-1 1s.447 1 1 1h5.989c.553 0 1-.448 1-1s-.447-1-1-1z"/><path d="m36.999 26.496h-15.004c-.553 0-1 .448-1 1s.447 1 1 1h15.004c.553 0 1-.448 1-1s-.447-1-1-1z"/></svg>