<svg id="icons" enable-background="new 0 0 64 64" height="512" viewBox="0 0 64 64" width="512" xmlns="http://www.w3.org/2000/svg"><path d="m63.982 7.999c0-1.654-1.346-3-3-3h-57.982c-1.654 0-3 1.346-3 3v2c0 .031.015.057.018.087v47.915c0 .553.447 1 1 1h61.982c.553 0 1-.447 1-1v-48.002c0-.031-.015-.057-.018-.087zm-60.982-1h1.02c-.552 0-.994.447-.994 1s.452 1 1.005 1c.552 0 1-.447 1-1s-.448-1-1-1h2.989c-.552 0-.994.447-.994 1s.452 1 1.005 1c.552 0 1-.447 1-1s-.448-1-1-1h2.989c-.552 0-.994.447-.994 1s.452 1 1.005 1c.552 0 1-.447 1-1s-.448-1-1-1h50.952c.552 0 1 .448 1 1v1h-51.953-3-3-.007c-.007 0-.013-.004-.02-.004s-.013.004-.02.004h-1.983v-1c0-.552.448-1 1-1zm54.992 21.997h-.525l-7.693-9.627c-.026-.032-.063-.049-.092-.077-.025-.025-.039-.058-.067-.08-.022-.018-.05-.022-.073-.038-.061-.04-.121-.07-.188-.096-.057-.023-.111-.043-.17-.054-.065-.013-.128-.016-.194-.016-.063 0-.123.003-.186.015-.061.012-.117.032-.176.056-.065.025-.126.056-.186.095-.023.016-.051.021-.073.038-.028.022-.042.055-.067.08-.029.028-.065.045-.092.077l-3.861 4.833-1.594-1.86c-.02-.023-.047-.033-.068-.054-.017-.017-.024-.039-.043-.055-.029-.024-.065-.032-.096-.054-.062-.041-.121-.079-.188-.105-.058-.023-.114-.036-.174-.048-.063-.013-.125-.022-.19-.022-.066 0-.128.01-.193.022-.06.012-.115.025-.173.048-.065.025-.123.062-.183.102-.033.021-.07.03-.102.057-.02.017-.028.041-.047.06-.02.02-.045.028-.063.05l-5.704 6.654h-2.537v-2.952c.001-.018.01-.031.01-.049s-.009-.031-.01-.049v-3.932c0-.007.004-.013.004-.02s-.004-.013-.004-.02v-6.98h25v14.001zm-19.83 0 3.83-4.469 1.084 1.266-2.559 3.203zm10.829-7.402 5.916 7.402h-11.83zm-17.999-.599h-10.988c-.553 0-1 .447-1 1s.447 1 1 1h10.988v2h-16.986c-.553 0-1 .447-1 1s.447 1 1 1h16.986v6h-9.986c-.553 0-1 .447-1 1s.447 1 1 1h9.986v2.008h-16.986c-.553 0-1 .447-1 1s.447 1 1 1h16.986v17.998h-25.988v-46.002h25.988zm-28.974-9.996h.986v46.002h-.986zm59.982 46.002h-29.008v-18.901c.004-.033.02-.063.02-.097s-.016-.063-.02-.097v-3.862c.001-.018.01-.031.01-.049s-.009-.031-.01-.049v-2.95h7.985c.006 0 .012.003.018.003.005 0 .009-.003.013-.003h15.969c.004 0 .008.003.013.003.006 0 .012-.003.018-.003h1.985c.553 0 1-.447 1-1 0-.001 0-.001 0-.001v-16c0-.553-.447-1-1-1h-26v-1.996h29.007z"/><path d="m8.004 14.995h19.002c.553 0 1-.447 1-1s-.447-1-1-1h-19.002c-.553 0-1 .447-1 1s.447 1 1 1z"/><path d="m9.004 17.995c0 .553.447 1 1 1h19c.553 0 1-.447 1-1s-.447-1-1-1h-19c-.553 0-1 .447-1 1z"/><path d="m24.008 49.019h-14.004c-.553 0-1 .447-1 1s.447 1 1 1h14.004c.553 0 1-.447 1-1s-.447-1-1-1z"/><path d="m14.004 53.007h-6c-.553 0-1 .447-1 1s.447 1 1 1h6c.553 0 1-.447 1-1s-.447-1-1-1z"/><path d="m16.004 20.995h-4c-.553 0-1 .447-1 1s.447 1 1 1h4c.553 0 1-.447 1-1s-.447-1-1-1z"/><path d="m14.006 30.995h11c.553 0 1-.447 1-1s-.447-1-1-1h-11c-.553 0-1 .447-1 1s.447 1 1 1z"/><path d="m14.006 42.996h13c.553 0 1-.447 1-1s-.447-1-1-1h-13c-.553 0-1 .447-1 1s.447 1 1 1z"/><path d="m17.006 32.995h-3c-.553 0-1 .447-1 1s.447 1 1 1h3c.553 0 1-.447 1-1s-.447-1-1-1z"/><path d="m21.01 47.007c.553 0 1-.447 1-1s-.447-1-1-1h-9.006c-.553 0-1 .447-1 1s.447 1 1 1z"/><path d="m58.992 32.997h-23c-.553 0-1 .447-1 1v11.999c0 .553.447 1 1 1h23c.553 0 1-.447 1-1v-11.999c0-.553-.447-1-1-1zm-12.5 9.743.791 1.129-.806 1.127h-1.564zm5.5-2.025 3.058 4.281h-6.115zm6 4.281h-.485l-4.701-6.582c-.033-.046-.08-.072-.119-.111s-.066-.088-.113-.121c-.01-.007-.021-.008-.032-.015-.061-.04-.128-.062-.195-.088-.055-.021-.106-.05-.163-.061-.065-.013-.131-.006-.198-.006-.061.001-.12-.006-.18.005-.061.012-.115.042-.173.064-.064.025-.13.046-.188.085-.01.007-.022.008-.032.015-.047.033-.074.082-.114.122-.038.038-.086.064-.118.11l-2.663 3.729-1.204-1.72c-.035-.05-.085-.079-.126-.121-.042-.041-.07-.091-.12-.125-.007-.005-.015-.005-.022-.01-.065-.044-.139-.065-.212-.093-.05-.018-.097-.047-.147-.057-.063-.012-.127-.003-.191-.003s-.128-.009-.19.003c-.052.01-.099.039-.148.057-.073.027-.146.049-.212.093-.008.005-.016.005-.022.01-.049.034-.077.083-.118.124-.042.042-.093.071-.128.122l-3.201 4.573h-5.479v-9.999h21v10z"/><path d="m58.992 48.997h-23c-.553 0-1 .447-1 1s.447 1 1 1h23c.553 0 1-.447 1-1s-.447-1-1-1z"/><path d="m47.98 52.997h-11.988c-.553 0-1 .447-1 1s.447 1 1 1h11.988c.553 0 1-.447 1-1s-.447-1-1-1z"/><path d="m40.024 38.998c.552 0 1-.447 1-1s-.448-1-1-1h-.011c-.552 0-.994.447-.994 1s.453 1 1.005 1z"/></svg>