<svg id="icons" enable-background="new 0 0 64 64" height="512" viewBox="0 0 64 64" width="512" xmlns="http://www.w3.org/2000/svg"><path d="m52.992 18.012h-41.984c-1.654 0-3 1.346-3 3v31.991c0 1.654 1.346 3 3 3h14.517l-1.2 2.997h-.322c-1.654 0-3 1.346-3 3v1c0 .553.447 1 1 1h19.994c.553 0 1-.447 1-1v-1c0-1.654-1.346-3-3-3h-.322l-1.199-2.997h14.517c1.654 0 3-1.346 3-3v-31.991c-.001-1.655-1.347-3-3.001-3zm-42.984 31.991v-26.002h.991v26.002zm2.991-26.002h40.993v26.002h-40.993zm-1.991-3.989h.977c-.521.034-.932.457-.932.987 0 .553.452 1 1.005 1 .552 0 1-.447 1-1 0-.53-.416-.953-.938-.987h2.864c-.521.034-.932.457-.932.987 0 .553.452 1 1.005 1 .552 0 1-.447 1-1 0-.53-.416-.953-.938-.987h2.864c-.521.034-.932.457-.932.987 0 .553.452 1 1.005 1 .552 0 1-.447 1-1 0-.53-.416-.953-.938-.987h34.872c.552 0 1 .448 1 1v.989h-43.982v-.989c0-.552.448-1 1-1zm12.995 40.988h15.994c.552 0 1 .448 1 1h-17.994c0-.552.448-1 1-1zm13.518-2h-11.042l1.199-2.997h8.643zm15.471-4.997h-15.974c-.001 0-.003 0-.005 0h-4.983-5.041c-.003 0-.006 0-.009 0h-15.972c-.552 0-1-.448-1-1v-1h22.012c-.552 0-.994.447-.994 1s.452 1 1.005 1c.552 0 1-.447 1-1s-.448-1-1-1h21.962v1c-.001.552-.449 1-1.001 1z"/><path d="m31.996 13.001c2.757 0 5-2.243 5-5s-2.243-5-5-5-5 2.243-5 5 2.243 5 5 5zm0-8c1.654 0 3 1.346 3 3s-1.346 3-3 3-3-1.346-3-3 1.346-3 3-3z"/><path d="m31.998 16c5.056 0 9.689-2.977 11.807-7.582.122-.266.122-.57 0-.836-2.117-4.605-6.751-7.582-11.807-7.582s-9.689 2.977-11.807 7.582c-.122.266-.122.57 0 .836 2.118 4.605 6.751 7.582 11.807 7.582zm0-14c4.122 0 7.914 2.34 9.787 6-1.873 3.66-5.665 6-9.787 6s-7.914-2.34-9.787-6c1.873-3.66 5.665-6 9.787-6z"/><path d="m16.005 27.999h17c.553 0 1-.447 1-1s-.447-1-1-1h-17c-.553 0-1 .447-1 1s.447 1 1 1z"/><path d="m30.005 30.999c0-.553-.447-1-1-1h-11c-.553 0-1 .447-1 1s.447 1 1 1h11c.553 0 1-.447 1-1z"/><path d="m28.005 42.003h-10c-.553 0-1 .447-1 1s.447 1 1 1h10c.553 0 1-.447 1-1s-.447-1-1-1z"/><path d="m32.005 30.999c0 .553.447 1 1 1h8.006c.553 0 1-.447 1-1s-.447-1-1-1h-8.006c-.553 0-1 .447-1 1z"/><path d="m22.005 45.991h-6c-.553 0-1 .447-1 1s.447 1 1 1h6c.553 0 1-.447 1-1s-.447-1-1-1z"/><path d="m20.005 33.999c-.553 0-1 .447-1 1s.447 1 1 1h4c.553 0 1-.447 1-1s-.447-1-1-1z"/><path d="m48.015 33.999h-20.01c-.553 0-1 .447-1 1s.447 1 1 1h20.01c.553 0 1-.447 1-1s-.448-1-1-1z"/><path d="m44.012 37.999h-24.007c-.553 0-1 .447-1 1s.447 1 1 1h24.007c.553 0 1-.447 1-1s-.448-1-1-1z"/></svg>