<svg id="icons" enable-background="new 0 0 64 64" height="512" viewBox="0 0 64 64" width="512" xmlns="http://www.w3.org/2000/svg"><path d="m58.519 17.87c.313-.913.491-1.889.491-2.907 0-4.963-4.037-9-9-9-1.082 0-2.146.209-3.148.584-.687-3.719-3.948-6.547-7.862-6.547-3.01 0-5.635 1.673-7 4.136-1.365-2.463-3.99-4.136-7-4.136-3.914 0-7.175 2.828-7.861 6.547-1.003-.375-2.066-.584-3.148-.584-4.963 0-9 4.037-9 9 0 1.019.178 1.994.491 2.907-2.196 1.699-3.495 4.291-3.495 7.103 0 2.346.904 4.55 2.503 6.216-1.579 1.5-2.503 3.587-2.503 5.796 0 2.095.828 4.092 2.28 5.58-.177.788-.276 1.6-.276 2.428 0 5.448 3.898 9.972 9.186 10.841.864 4.64 4.936 8.166 9.823 8.166 3.961 0 7.382-2.321 9-5.67 1.618 3.349 5.039 5.67 9 5.67 4.887 0 8.959-3.526 9.824-8.167 5.287-.869 9.186-5.393 9.186-10.841 0-.828-.1-1.64-.276-2.428 1.452-1.488 2.28-3.485 2.28-5.58 0-2.209-.924-4.296-2.503-5.796 1.599-1.666 2.503-3.87 2.503-6.216 0-2.811-1.299-5.403-3.495-7.102zm-18.519 4.129c.552 0 1 .448 1 1v16c0 .552-.448 1-1 1h-16c-.552 0-1-.448-1-1v-16c0-.552.448-1 1-1zm-17 40.001c-4.411 0-8-3.589-8-8s3.589-8 8-8c.553 0 1-.447 1-1s-.447-1-1-1c-5.435 0-9.862 4.361-9.988 9.766-4.072-.901-7.021-4.486-7.021-8.773 0-2.443.962-4.729 2.709-6.438.395-.386.402-1.02.016-1.414-.385-.394-1.019-.402-1.414-.016-.965.943-1.722 2.036-2.274 3.221-.667-.984-1.04-2.15-1.04-3.361 0-1.967.968-3.813 2.588-4.937.05-.034.079-.084.12-.125.027-.027.064-.04.09-.071.012-.015.014-.033.024-.048.044-.062.071-.127.1-.194.021-.052.048-.101.061-.155.017-.071.016-.143.017-.216.001-.055.007-.106-.002-.159-.011-.071-.038-.138-.064-.206-.021-.055-.038-.107-.068-.158-.011-.019-.013-.04-.025-.059-.034-.049-.083-.077-.123-.118-.028-.029-.045-.065-.077-.092-1.677-1.337-2.639-3.332-2.639-5.474 0-2.038.878-3.93 2.38-5.249 1.593 2.541 4.41 4.239 7.624 4.239.553 0 1-.447 1-1s-.447-1-1-1c-3.859 0-7-3.141-7-7s3.141-7 7-7c1.061 0 2.099.253 3.042.71.154 1.852.937 3.58 2.251 4.923.196.2.455.301.715.301.252 0 .505-.095.699-.285.395-.387.401-1.02.016-1.414-1.109-1.13-1.717-2.621-1.717-4.198 0-3.309 2.691-6 6-6 3.306 0 5.995 2.688 6 5.992 0 .003-.002.005-.002.008v11.999h-3v-1c0-.553-.447-1-1-1s-1 .447-1 1v1h-1.998c-1.654 0-3 1.346-3 3v2.007h-1.017c-.553 0-1 .447-1 1s.447 1 1 1h1.017v3h-1.017c-.553 0-1 .447-1 1s.447 1 1 1h1.017v3h-1.017c-.553 0-1 .447-1 1s.447 1 1 1h1.017v1.993c0 1.654 1.346 3 3 3h1.998v1.021c0 .553.447 1 1 1s1-.447 1-1v-1.021h3.002v12.001c0 4.411-3.589 8-8 8zm35.974-21.654c-.553-1.185-1.31-2.277-2.274-3.221-.395-.387-1.028-.378-1.414.016-.387.395-.379 1.028.016 1.414 1.747 1.708 2.709 3.994 2.709 6.438 0 4.287-2.949 7.872-7.021 8.773-.128-5.405-4.555-9.766-9.99-9.766-.553 0-1 .447-1 1s.447 1 1 1c4.411 0 8 3.589 8 8s-3.589 8-8 8-8-3.589-8-8v-12.001h2.998v1.021c0 .553.447 1 1 1s1-.447 1-1v-1.021h2.002c1.654 0 3-1.346 3-3v-1.993h1.005c.553 0 1-.447 1-1s-.447-1-1-1h-1.005v-3h1.005c.553 0 1-.447 1-1s-.447-1-1-1h-1.005v-3h1.005c.553 0 1-.447 1-1s-.447-1-1-1h-1.005v-2.007c0-1.654-1.346-3-3-3h-2.002v-1c0-.553-.447-1-1-1s-1 .447-1 1v1h-3v-11.989c0-.004.002-.006.002-.01 0-3.309 2.691-6 6-6s6 2.691 6 6c0 1.577-.608 3.068-1.713 4.197-.386.395-.379 1.027.016 1.414.194.19.447.285.699.285.26 0 .519-.101.715-.301 1.314-1.343 2.097-3.071 2.251-4.923.943-.457 1.981-.71 3.042-.71 3.859 0 7 3.141 7 7s-3.141 7-7 7c-.553 0-1 .447-1 1s.447 1 1 1c3.214 0 6.031-1.698 7.624-4.239 1.502 1.319 2.38 3.211 2.38 5.249 0 2.142-.962 4.137-2.639 5.474-.032.026-.049.063-.077.092-.04.041-.089.069-.123.118-.013.019-.015.04-.025.059-.03.051-.048.104-.068.158-.026.068-.054.135-.064.206-.009.053-.003.104-.002.159.001.073 0 .145.017.216.013.055.039.104.061.155.028.067.056.133.1.194.011.015.013.033.024.048.025.031.063.044.09.071.041.041.07.091.12.125 1.62 1.124 2.588 2.97 2.588 4.937-.002 1.211-.375 2.377-1.042 3.362z"/><path d="m23.999 23.999v14.002c0 .553.447 1 1 1h14.002c.553 0 1-.447 1-1v-14.002c0-.553-.447-1-1-1h-14.002c-.553 0-1 .447-1 1zm2 1h12.002v12.002h-12.002z"/><path d="m35 29.001h-6c-.553 0-1 .447-1 1s.447 1 1 1h6c.553 0 1-.447 1-1s-.447-1-1-1z"/><path d="m33 32.001h-2c-.553 0-1 .447-1 1s.447 1 1 1h2c.553 0 1-.447 1-1s-.447-1-1-1z"/></svg>