<svg id="icons" enable-background="new 0 0 64 64" height="512" viewBox="0 0 64 64" width="512" xmlns="http://www.w3.org/2000/svg"><path d="m43.006 29.994c-.001 0-.003-.001-.004-.001h-21.987c-.005 0-.01-.003-.015-.003-2.757 0-5 2.243-5 5v.001 23.996c0 .002.001.003.001.005 0 .001-.001.002-.001.004 0 2.757 2.243 5 5 5 .002 0 .003-.001.005-.001h21.974c.007 0 .013.004.02.004 2.757 0 5-2.243 5-5v-.001c0-.004.002-.007.002-.011v-23.996c0-.008-.004-.014-.004-.021-.015-2.743-2.246-4.972-4.991-4.976zm.008 24.001c-.004 0-.008-.002-.012-.002h-22.004c-.001 0-.002.001-.003.001-1.652-.003-2.995-1.348-2.995-3v-4.027c.838.635 1.87 1.025 3 1.025.002 0 .003-.001.005-.001h21.974c.007 0 .013.004.02.004 1.131 0 2.163-.392 3.002-1.027v4.02c0 .004-.002.007-.002.01-.001 1.648-1.339 2.988-2.985 2.997zm-22.014-14.005c.002 0 .003-.001.005-.001h21.974c.007 0 .013.004.02.004 1.131 0 2.163-.392 3.002-1.027v4.02c0 .004-.002.007-.002.01 0 1.649-1.338 2.989-2.984 2.998-.004 0-.008-.002-.012-.002h-22.005c-.001 0-.002.001-.003.001-1.652-.003-2.995-1.348-2.995-3v-4.027c.838.634 1.87 1.024 3 1.024zm-.011-7.999c.003 0 .006.002.009.002h22c1.654 0 3 1.346 3 3 0 1.649-1.338 2.989-2.984 2.998-.004 0-.008-.002-.012-.002h-22.004c-.001 0-.002.001-.003.001-1.652-.003-2.995-1.348-2.995-3 0-1.65 1.34-2.993 2.989-2.999zm22.025 30.006c-.004 0-.008-.002-.012-.002h-22.004c-.001 0-.002.001-.003.001-1.652-.003-2.995-1.348-2.995-3 0-.002-.001-.003-.001-.004 0-.002.001-.003.001-.005v-4.019c.838.635 1.87 1.025 3 1.025.002 0 .003-.001.005-.001h21.974c.007 0 .013.004.02.004 1.131 0 2.163-.392 3.002-1.027v4.018.001c0 .004-.002.007-.002.011-.001 1.649-1.339 2.989-2.985 2.998z"/><path d="m20.953 25.997c.014.001.025.008.039.008 2.207 0 4.002-1.795 4.002-4.002 0-.001 0-.001 0-.002 0-.004.002-.007.002-.011v-17.987c0-.007-.004-.013-.004-.02-.011-2.198-1.8-3.982-4-3.982-.004 0-.006.002-.01.002h-11.964c-.004 0-.006-.002-.01-.002-2.206 0-4 1.794-4 3.999v17.99c0 .002.001.003.001.005s-.001.003-.001.005c0 2.206 1.794 4 4 4 .005 0 .01-.003.015-.003zm.065-7.995c-.009 0-.017-.005-.025-.005h-11.981c-.004 0-.007.002-.011.002-1.1-.004-1.993-.899-1.993-1.999v-2.557c.591.345 1.268.557 2 .557.005 0 .01-.003.015-.003h11.931c.014.001.025.008.039.008.733 0 1.412-.213 2.004-.558v2.546c0 .004-.002.007-.002.01-.001 1.095-.886 1.985-1.977 1.999zm-12.01-10.002c.005 0 .01-.003.015-.003h11.931c.014.001.025.008.039.008.733 0 1.412-.213 2.004-.558v2.546c0 .004-.002.007-.002.01 0 1.095-.885 1.985-1.977 1.999-.009 0-.017-.005-.025-.005h-11.981c-.004 0-.007.002-.011.002-1.1-.004-1.993-.899-1.993-1.999v-2.557c.591.345 1.268.557 2 .557zm-.004-5.999c.003 0 .005.002.008.002h11.98c.002 0 .004-.001.007-.001 1.101.003 1.995.899 1.995 2.001 0 1.095-.885 1.985-1.977 1.999-.009 0-.017-.005-.025-.005h-11.98c-.004 0-.007.002-.011.002-1.1-.004-1.993-.899-1.993-1.999 0-1.102.895-1.996 1.996-1.999zm-1.996 19.999c0-.002-.001-.003-.001-.005s.001-.003.001-.005v-2.547c.591.345 1.268.557 2 .557.005 0 .01-.003.015-.003h11.931c.014.001.025.008.039.008.733 0 1.412-.213 2.004-.558v2.543.002c0 .004-.002.007-.002.011 0 1.095-.885 1.985-1.977 1.999-.009 0-.017-.005-.025-.005h-11.981c-.004 0-.007.002-.011.002-1.1-.004-1.993-.899-1.993-1.999z"/><path d="m54.988.001c-.004 0-.006.002-.01.002h-11.964c-.004 0-.006-.002-.01-.002-2.206 0-4 1.794-4 3.999v17.99c0 .002.001.003.001.005s-.001.003-.001.005c0 2.206 1.794 4 4 4 .005 0 .01-.003.015-.003h11.931c.014.001.025.008.039.008 2.207 0 4.002-1.795 4.002-4.002 0-.001 0-.001 0-.002 0-.004.002-.007.002-.011v-17.987c0-.007-.004-.013-.004-.02-.011-2.198-1.801-3.982-4.001-3.982zm.026 18.001c-.009 0-.017-.005-.025-.005h-11.98c-.004 0-.007.002-.011.002-1.1-.004-1.993-.899-1.993-1.999v-2.557c.591.345 1.269.557 2 .557.005 0 .01-.003.015-.003h11.931c.014.001.025.008.039.008.733 0 1.412-.213 2.004-.558v2.546c0 .004-.002.007-.002.01-.002 1.095-.887 1.985-1.978 1.999zm-12.01-10.002c.005 0 .01-.003.015-.003h11.931c.014.001.025.008.039.008.733 0 1.412-.213 2.004-.558v2.546c0 .004-.002.007-.002.01 0 1.095-.885 1.985-1.977 1.999-.009 0-.017-.005-.025-.005h-11.98c-.004 0-.007.002-.011.002-1.1-.004-1.993-.899-1.993-1.999v-2.557c.59.345 1.267.557 1.999.557zm-.004-5.999c.003 0 .005.002.008.002h11.98c.002 0 .004-.001.007-.001 1.101.003 1.995.899 1.995 2.001 0 1.095-.885 1.985-1.977 1.999-.009 0-.017-.005-.025-.005h-11.98c-.004 0-.007.002-.011.002-1.1-.004-1.993-.899-1.993-1.999 0-1.102.895-1.996 1.996-1.999zm12.014 22.001c-.009 0-.017-.005-.025-.005h-11.98c-.004 0-.007.002-.011.002-1.1-.004-1.993-.899-1.993-1.999 0-.002-.001-.003-.001-.005s.001-.003.001-.005v-2.547c.591.345 1.269.557 2 .557.005 0 .01-.003.015-.003h11.931c.014.001.025.008.039.008.733 0 1.412-.213 2.004-.558v2.543.002c0 .004-.002.007-.002.011-.002 1.095-.887 1.985-1.978 1.999z"/><path d="m36.997 14.005c.553 0 1-.447 1-1s-.447-1-1-1h-9.994c-.553 0-1 .447-1 1s.447 1 1 1h3.997v10.573l-1.289-1.289c-.391-.391-1.023-.391-1.414 0s-.391 1.023 0 1.414l2.995 2.995c.092.093.203.166.326.217.122.051.252.077.382.077s.26-.026.382-.077c.123-.051.234-.124.326-.217l2.995-2.995c.391-.391.391-1.023 0-1.414s-1.023-.391-1.414 0l-1.289 1.289v-10.573z"/></svg>