<svg id="icons" enable-background="new 0 0 64 64" height="512" viewBox="0 0 64 64" width="512" xmlns="http://www.w3.org/2000/svg"><path d="m21 34.007c.002 0 .003-.001.005-.001h21.974c.007 0 .013.004.02.004 2.757 0 5-2.243 5-5v-.001c0-.004.002-.007.002-.011v-23.996c0-.008-.004-.014-.004-.021-.014-2.743-2.245-4.972-4.99-4.976-.001 0-.003-.001-.004-.001h-21.988c-.005 0-.01-.003-.015-.003-2.757 0-5 2.243-5 5v.001 23.996c0 .002.001.003.001.004 0 .002-.001.003-.001.005 0 2.757 2.243 5 5 5zm0-24.006c.002 0 .003-.001.005-.001h21.974c.007 0 .013.004.02.004 1.131 0 2.163-.392 3.002-1.027v4.02c0 .004-.002.006-.002.01 0 1.649-1.338 2.99-2.984 2.998-.004 0-.008-.002-.012-.002h-22.005c-.001 0-.002.001-.003.001-1.652-.004-2.995-1.349-2.995-3.001v-4.027c.838.634 1.87 1.025 3 1.025zm0 8.002c.002 0 .003-.001.005-.001h21.974c.007 0 .013.004.02.004 1.131 0 2.163-.392 3.002-1.027v4.02c0 .004-.002.006-.002.01 0 1.649-1.338 2.99-2.984 2.998-.004 0-.008-.002-.012-.002h-22.005c-.001 0-.002.001-.003.001-1.652-.003-2.995-1.348-2.995-3v-4.027c.838.633 1.87 1.024 3 1.024zm22.014 14.005c-.004 0-.008-.002-.012-.002h-22.004c-.001 0-.002.001-.003.001-1.652-.003-2.995-1.348-2.995-3 0-.002-.001-.003-.001-.005 0-.001.001-.002.001-.004v-4.019c.838.635 1.87 1.025 3 1.025.002 0 .003-.001.005-.001h21.974c.007 0 .013.004.02.004 1.131 0 2.163-.392 3.002-1.027v4.018.001c0 .004-.002.007-.002.011-.001 1.649-1.339 2.99-2.985 2.998zm-22.025-30.006c.003 0 .006.002.009.002h22c1.654 0 3 1.346 3 3 0 1.649-1.338 2.99-2.984 2.998-.004 0-.008-.002-.012-.002h-22.004c-.001 0-.002.001-.003.001-1.652-.003-2.995-1.348-2.995-3 0-1.65 1.34-2.993 2.989-2.999z"/><path d="m21.982 51.033c0-1.654-1.346-3-3-3h-11.979c-1.654 0-3 1.346-3 3v2c0 .031.015.057.018.087v9.879c0 .553.447 1 1 1h15.979c.553 0 1-.447 1-1v-10.967c0-.031-.015-.057-.018-.087zm-14.979-1h11.979c.552 0 .999.447 1 .999h-13.979c.001-.552.448-.999 1-.999zm-.982 11.966v-8.967h13.962v.001c0 .031.015.057.018.087v8.879z"/><path d="m40.984 51.033c0-1.654-1.346-3-3-3h-11.979c-1.654 0-3 1.346-3 3v2c0 .031.015.057.018.087v9.879c0 .553.447 1 1 1h15.979c.553 0 1-.447 1-1v-10.967c0-.031-.015-.057-.018-.087zm-14.979-1h11.979c.552 0 .999.447 1 .999h-13.979c.001-.552.448-.999 1-.999zm-.983 11.966v-8.967h13.962v.001c0 .031.015.057.018.087v8.879z"/><path d="m59.98 51c0-1.654-1.346-3-3-3h-11.979c-1.654 0-3 1.346-3 3v2c0 .031.015.057.018.087v9.879c0 .553.447 1 1 1h15.979c.553 0 1-.447 1-1v-10.967c0-.031-.015-.057-.018-.087zm-14.979-1h11.979c.552 0 .999.447 1 .999h-13.979c.001-.552.448-.999 1-.999zm-.982 11.966v-8.967h13.961v.001c0 .031.015.057.018.087v8.879z"/><path d="m17.004 55.001h-7.998c-.553 0-1 .447-1 1s.447 1 1 1h7.998c.553 0 1-.447 1-1s-.447-1-1-1z"/><path d="m17.004 58h-7.998c-.553 0-1 .447-1 1s.447 1 1 1h7.998c.553 0 1-.447 1-1s-.447-1-1-1z"/><path d="m54.997 55.001h-7.998c-.553 0-1 .447-1 1s.447 1 1 1h7.998c.553 0 1-.447 1-1s-.447-1-1-1z"/><path d="m54.997 58h-7.998c-.553 0-1 .447-1 1s.447 1 1 1h7.998c.553 0 1-.447 1-1s-.447-1-1-1z"/><path d="m35.993 55.016h-7.998c-.553 0-1 .447-1 1s.447 1 1 1h7.998c.553 0 1-.447 1-1s-.447-1-1-1z"/><path d="m35.993 58.015h-7.998c-.553 0-1 .447-1 1s.447 1 1 1h7.998c.553 0 1-.447 1-1s-.447-1-1-1z"/><path d="m12.01 41.005v4.997c0 .553.447 1 1 1s1-.447 1-1v-3.997h17.002v3.997c0 .553.447 1 1 1s1-.447 1-1v-3.997h16.997v3.997c0 .553.447 1 1 1s1-.447 1-1v-4.997c0-.553-.447-1-1-1h-17.997v-4.005c0-.553-.447-1-1-1s-1 .447-1 1v4.005h-18.002c-.553 0-1 .447-1 1z"/></svg>