<svg id="icons" enable-background="new 0 0 64 64" height="512" viewBox="0 0 64 64" width="512" xmlns="http://www.w3.org/2000/svg"><path d="m6.988 9h.011c1.648 0 2.993-1.341 2.999-2.988.006-1.656-1.335-3.006-2.999-3.012-1.649 0-2.995 1.342-3.001 2.99-.003.802.307 1.556.872 2.124.565.569 1.318.883 2.118.886zm.014-4c.552.002.998.452.996 1.004-.002.55-.45.996-.999.996v1l-.003-1c-.268-.001-.52-.105-.708-.296-.188-.188-.291-.44-.29-.706.002-.551.451-.998 1.004-.998z"/><path d="m21.547 7.877c.145.073.299.107.45.107.365 0 .718-.201.894-.549l1.008-1.996c.249-.493.051-1.095-.441-1.344s-1.095-.05-1.344.441l-1.008 1.996c-.25.494-.051 1.096.441 1.345z"/><path d="m25.547 7.891c.145.073.299.107.45.107.365 0 .718-.201.894-.549l1.008-1.996c.249-.493.051-1.095-.441-1.344-.493-.249-1.095-.05-1.344.441l-1.008 1.996c-.25.494-.051 1.096.441 1.345z"/><path d="m29.548 7.906c.145.073.298.107.449.107.366 0 .718-.201.894-.55l1.008-1.998c.249-.493.051-1.095-.442-1.343-.494-.252-1.095-.051-1.343.442l-1.008 1.998c-.25.495-.051 1.096.442 1.344z"/><path d="m6.999 12.998c-1.649 0-2.995 1.342-3.001 2.99-.003.802.307 1.556.872 2.124.564.568 1.317.883 2.118.886h.011c1.648 0 2.993-1.341 2.999-2.988.006-1.656-1.335-3.006-2.999-3.012zm0 4v1l-.003-1c-.268-.001-.52-.105-.708-.296-.188-.188-.291-.44-.29-.706.002-.551.451-.998 1.004-.998.552.002.998.452.996 1.004-.002.55-.45.996-.999.996z"/><path d="m23.457 14.094c-.492-.248-1.095-.05-1.344.441l-1.008 1.996c-.249.493-.051 1.095.441 1.344.145.073.299.107.45.107.365 0 .718-.201.894-.549l1.008-1.996c.249-.493.051-1.094-.441-1.343z"/><path d="m27.457 14.107c-.493-.249-1.095-.05-1.344.441l-1.008 1.996c-.249.493-.051 1.095.441 1.344.145.073.299.107.45.107.365 0 .718-.201.894-.549l1.008-1.996c.249-.492.051-1.094-.441-1.343z"/><path d="m31.456 14.121c-.494-.251-1.095-.051-1.343.442l-1.008 1.998c-.249.493-.051 1.095.442 1.343.145.073.298.107.449.107.366 0 .718-.201.894-.55l1.008-1.998c.249-.492.051-1.094-.442-1.342z"/><path d="m6.999 22.996c-1.649 0-2.995 1.342-3.001 2.99-.003.802.307 1.556.872 2.124.564.568 1.317.883 2.118.886h.011c1.648 0 2.993-1.341 2.999-2.988.006-1.655-1.335-3.006-2.999-3.012zm0 4v1l-.003-1c-.268-.001-.52-.105-.708-.296-.188-.188-.291-.44-.29-.706.002-.551.451-.998 1.004-.998.552.002.998.452.996 1.004-.002.55-.45.996-.999.996z"/><path d="m23.457 24.092c-.492-.249-1.095-.051-1.344.441l-1.008 1.996c-.249.493-.051 1.095.441 1.344.145.073.299.107.45.107.365 0 .718-.201.894-.549l1.008-1.996c.249-.493.051-1.094-.441-1.343z"/><path d="m27.457 24.105c-.493-.25-1.095-.05-1.344.441l-1.008 1.996c-.249.493-.051 1.095.441 1.344.145.073.299.107.45.107.365 0 .718-.201.894-.549l1.008-1.996c.249-.492.051-1.094-.441-1.343z"/><path d="m31.456 24.119c-.494-.251-1.095-.051-1.343.442l-1.008 1.998c-.249.493-.051 1.095.442 1.343.145.073.298.107.449.107.366 0 .718-.201.894-.55l1.008-1.998c.249-.492.051-1.094-.442-1.342z"/><path d="m62.998 58h-1.998v-20.992c0-1.626-1.303-2.947-2.918-2.992-.015 0-.026-.008-.041-.008h-13.043v-13.988c0-2.759-2.245-5.004-5.004-5.004h-3.996v-2.016c0-.771-.301-1.468-.78-2 .479-.532.78-1.229.78-2v-5.998c0-1.654-1.346-3-3-3h-30c-1.654 0-3 1.346-3 3v5.998c0 .771.301 1.468.78 2-.479.532-.78 1.229-.78 2v5.998c0 .771.301 1.468.78 2-.479.532-.78 1.229-.78 2v5.998c0 1.654 1.346 3 3 3h30c1.654 0 3-1.346 3-3v-5.998c0-.771-.301-1.468-.78-2 .479-.532.78-1.229.78-2v-1.982h3.996c1.656 0 3.004 1.348 3.004 3.004v13.988h-13.978c-1.654 0-3 1.346-3 3v20.992h-1.998c-.553 0-1 .447-1 1v1.998c0 1.654 1.346 3 3 3h34.977c1.654 0 3-1.346 3-3v-1.998c-.001-.553-.448-1-1.001-1zm-61-39.002v-5.998c0-.552.448-1 1-1h30c.552 0 1 .448 1 1v5.998c0 .552-.448 1-1 1h-30c-.552 0-1-.448-1-1zm0-15.996c0-.552.448-1 1-1h30c.552 0 1 .448 1 1v5.998c0 .552-.448 1-1 1h-30c-.552 0-1-.448-1-1v-5.998zm32 25.994c0 .552-.448 1-1 1h-30c-.552 0-1-.448-1-1v-5.998c0-.552.448-1 1-1h30c.552 0 1 .448 1 1zm-5.978 8.012c0-.552.448-1 1-1h28.98c.552 0 1 .448 1 1v20.992h-30.98zm32.978 24.99h-34.977c-.552 0-1-.448-1-1v-.998h36.977v.998c0 .552-.448 1-1 1z"/><path d="m31.996 39.996h4.988c.553 0 1-.447 1-1s-.447-1-1-1h-4.988c-.553 0-1 .447-1 1s.447 1 1 1z"/><path d="m32.996 42.996c0 .553.447 1 1 1h9.992c.553 0 1-.447 1-1s-.447-1-1-1h-9.992c-.553 0-1 .447-1 1z"/><path d="m47.988 43.996h1c.553 0 1-.447 1-1s-.447-1-1-1h-1c-.553 0-1 .447-1 1s.448 1 1 1z"/><path d="m36.996 53.984h-5c-.553 0-1 .447-1 1s.447 1 1 1h5c.553 0 1-.447 1-1s-.447-1-1-1z"/><path d="m48.988 45.992h-14.994c-.553 0-1 .447-1 1s.447 1 1 1h14.994c.553 0 1-.447 1-1s-.447-1-1-1z"/><path d="m53.994 49.996h-20c-.553 0-1 .447-1 1s.447 1 1 1h20c.553 0 1-.447 1-1s-.447-1-1-1z"/></svg>