<svg id="icons" enable-background="new 0 0 64 64" height="512" viewBox="0 0 64 64" width="512" xmlns="http://www.w3.org/2000/svg"><path d="m40.5 0c-2.169 0-4.305.311-6.37.892-.544-.55-1.297-.892-2.13-.892s-1.586.342-2.13.892c-2.065-.581-4.201-.892-6.37-.892-12.958 0-23.5 10.542-23.5 23.5 0 2.167.31 4.304.891 6.371-.549.544-.891 1.297-.891 2.129s.342 1.585.891 2.129c-.581 2.067-.891 4.204-.891 6.371 0 12.958 10.542 23.5 23.5 23.5 2.169 0 4.305-.311 6.37-.892.544.55 1.297.892 2.13.892s1.586-.342 2.13-.892c2.065.581 4.201.892 6.37.892 12.958 0 23.5-10.542 23.5-23.5 0-2.167-.31-4.304-.891-6.371.549-.544.891-1.297.891-2.129s-.342-1.585-.891-2.129c.581-2.067.891-4.204.891-6.371 0-12.958-10.542-23.5-23.5-23.5zm12.006 52.506c-2.171 2.172-4.651 3.944-7.358 5.322l-4.229-9.066c1.653-.88 3.175-1.986 4.516-3.327s2.447-2.862 3.326-4.515l.942.439c.001 0 .001.001.002.001s.002 0 .002.001l8.12 3.786c-1.377 2.707-3.149 5.188-5.321 7.359zm-20.506 6.494c-3.651 0-7.176-.721-10.496-2.126l2.537-5.439c2.523 1.037 5.195 1.565 7.959 1.565 2.763 0 5.435-.528 7.959-1.565l2.537 5.439c-3.321 1.405-6.845 2.126-10.496 2.126zm-20.506-6.494c-2.172-2.171-3.944-4.651-5.322-7.358l9.066-4.229c.88 1.653 1.986 3.175 3.327 4.516s2.862 2.447 4.515 3.326l-4.228 9.066c-2.706-1.377-5.187-3.149-7.358-5.321zm-8.494-19.506c-.552 0-1-.448-1-1s.448-1 1-1h.026c-.01.333-.026.665-.026 1s.016.667.026 1zm2-1c0-3.651.721-7.176 2.126-10.495l5.44 2.536c-1.037 2.524-1.566 5.196-1.566 7.959 0 2.764.528 5.437 1.564 7.959l-5.439 2.537c-1.405-3.32-2.125-6.845-2.125-10.496zm6.494-20.506c2.171-2.172 4.651-3.944 7.358-5.322l4.229 9.066c-1.653.88-3.175 1.986-4.516 3.327s-2.447 2.862-3.327 4.516l-9.066-4.229c1.378-2.706 3.15-5.187 5.322-7.358zm20.506-6.494c3.65 0 7.175.721 10.496 2.126l-2.537 5.439c-2.523-1.037-5.195-1.565-7.959-1.565s-5.436.528-7.959 1.565l-2.537-5.439c3.321-1.405 6.845-2.126 10.496-2.126zm20.506 6.494c2.172 2.171 3.944 4.651 5.322 7.358l-9.066 4.229c-.88-1.653-1.986-3.175-3.327-4.516s-2.862-2.447-4.516-3.327l4.229-9.066c2.706 1.378 5.187 3.15 7.358 5.322zm-1.506 20.506c0 2.468-.489 4.847-1.403 7.103l-.715-.333c-.045-.031-.079-.073-.131-.097-.505-.234-1.097-.014-1.328.486-.004.009-.01.018-.014.026-.836 1.794-1.975 3.421-3.389 4.835-1.421 1.421-3.057 2.565-4.861 3.402-.501.232-.719.827-.486 1.328.032.068.076.126.12.184l.31.663c-2.257.914-4.636 1.403-7.103 1.403-2.468 0-4.847-.49-7.103-1.403l.308-.659c.045-.059.09-.117.122-.187.232-.501.015-1.096-.486-1.328-.009-.004-.018-.01-.026-.014-1.794-.836-3.421-1.975-4.835-3.389-1.421-1.421-2.565-3.057-3.402-4.861-.231-.5-.822-.72-1.328-.486-.051.023-.085.064-.13.095l-.717.335c-.914-2.256-1.403-4.635-1.403-7.103s.489-4.847 1.402-7.103l.717.335c.045.03.079.071.13.095.137.063.279.093.42.093.378 0 .739-.215.908-.579.837-1.805 1.981-3.44 3.402-4.861s3.057-2.565 4.861-3.402c.501-.232.719-.827.486-1.328-.023-.051-.064-.085-.096-.13l-.334-.717c2.257-.914 4.637-1.403 7.104-1.403 2.468 0 4.847.49 7.103 1.403l-.334.715c-.03.045-.072.08-.096.131-.232.501-.015 1.096.486 1.328 1.805.837 3.44 1.981 4.861 3.402s2.565 3.057 3.402 4.861c.169.364.53.579.908.579.141 0 .283-.029.42-.093.051-.023.085-.064.13-.095l.716-.334c.915 2.255 1.404 4.634 1.404 7.103zm.435 7.959c1.037-2.524 1.565-5.195 1.565-7.959 0-2.765-.528-5.437-1.565-7.959l5.44-2.537c1.405 3.319 2.125 6.844 2.125 10.496 0 3.65-.721 7.175-2.126 10.496zm9.565-6.959h-.026c.01-.333.026-.665.026-1s-.016-.667-.026-1h.026c.552 0 1 .448 1 1s-.448 1-1 1zm-20.5-31c11.855 0 21.5 9.645 21.5 21.5 0 1.878-.256 3.73-.732 5.527-.09-.008-.176-.027-.268-.027h-.156c-.294-2.881-1.019-5.673-2.156-8.342l.93-.434h.002c.125-.059.232-.14.319-.236.262-.289.34-.718.165-1.094-.001-.003-.004-.004-.005-.007-1.525-3.271-3.604-6.233-6.179-8.808-2.574-2.575-5.537-4.653-8.808-6.179-.003-.001-.004-.004-.007-.005-.374-.174-.803-.096-1.093.165-.097.087-.179.194-.237.319 0 .001 0 .002-.001.002l-.434.931c-2.669-1.137-5.46-1.862-8.34-2.156v-.154-.001-.001c0-.092-.019-.178-.027-.267 1.796-.477 3.647-.733 5.527-.733zm-8.5 0c.552 0 1 .448 1 1v.026c-.333-.01-.665-.026-1-.026s-.667.016-1 .026v-.026c0-.552.448-1 1-1zm-30 21.5c0-11.855 9.645-21.5 21.5-21.5 1.88 0 3.731.256 5.527.733-.008.089-.027.175-.027.267v.156c-2.881.294-5.672 1.019-8.341 2.156l-.434-.93c-.001 0-.001-.001-.001-.002-.059-.125-.141-.232-.237-.32-.022-.021-.054-.028-.078-.047-.078-.059-.158-.116-.249-.149-.241-.089-.516-.085-.766.032-.003.001-.004.004-.007.005-3.271 1.525-6.233 3.604-8.808 6.179-2.575 2.574-4.653 5.537-6.179 8.808-.001.003-.004.004-.005.007-.175.376-.097.805.165 1.094.087.097.194.178.319.236h.002l.932.435c-1.137 2.668-1.863 5.459-2.157 8.34h-.156c-.092 0-.178.019-.268.027-.476-1.797-.732-3.649-.732-5.527zm21.5 38.5c-11.855 0-21.5-9.645-21.5-21.5 0-1.878.256-3.73.732-5.527.09.008.176.027.268.027h.156c.294 2.881 1.019 5.672 2.156 8.342l-.93.433c0 .001-.001.001-.002.001-.125.059-.232.14-.319.236-.262.289-.34.718-.165 1.094.002.004.005.007.007.011 1.525 3.269 3.603 6.23 6.177 8.804 2.574 2.575 5.537 4.653 8.808 6.179.003.001.004.004.007.005.137.063.28.094.422.094.283 0 .557-.12.747-.334.063-.071.118-.153.161-.244 0-.001 0-.002.001-.002l.434-.931c2.669 1.139 5.46 1.863 8.341 2.157v.155c0 .092.019.178.027.267-1.797.477-3.648.733-5.528.733zm8.5 0c-.552 0-1-.448-1-1v-.026c.333.01.665.026 1 .026s.667-.016 1-.026v.026c0 .552-.448 1-1 1zm30-21.5c0 11.855-9.645 21.5-21.5 21.5-1.88 0-3.731-.256-5.527-.733.008-.089.027-.175.027-.267v-.156c2.881-.294 5.672-1.019 8.341-2.156l.434.93c.001 0 .001.001.001.002.043.091.098.173.161.244.19.214.464.334.747.334.142 0 .285-.03.422-.094.003-.001.004-.004.007-.005 3.271-1.525 6.233-3.604 8.808-6.179 2.574-2.573 4.651-5.535 6.177-8.804.002-.004.005-.007.007-.011.175-.376.097-.805-.165-1.094-.087-.097-.194-.178-.319-.236-.001 0-.002 0-.002-.001l-.931-.434c1.138-2.669 1.863-5.461 2.157-8.341h.155c.092 0 .178-.019.268-.027.476 1.798.732 3.65.732 5.528z"/><path d="m32 17c-8.271 0-15 6.729-15 15s6.729 15 15 15 15-6.729 15-15-6.729-15-15-15zm0 28c-7.168 0-13-5.832-13-13s5.832-13 13-13 13 5.832 13 13-5.832 13-13 13z"/><path d="m27.71 27.297c-.391-.391-1.023-.391-1.414 0l-4.001 4.002c-.391.391-.391 1.023 0 1.414l4.001 4.001c.195.195.451.293.707.293s.512-.098.707-.293c.391-.391.391-1.023 0-1.414l-3.294-3.294 3.294-3.295c.391-.391.391-1.023 0-1.414z"/><path d="m36.289 27.297c-.391.391-.391 1.023 0 1.414l3.294 3.295-3.294 3.294c-.391.391-.391 1.023 0 1.414.195.195.451.293.707.293s.512-.098.707-.293l4.001-4.001c.391-.391.391-1.023 0-1.414l-4.001-4.002c-.39-.391-1.023-.391-1.414 0z"/><path d="m33.133 24.012c-.546-.074-1.054.303-1.132.849l-1.999 14.008c-.078.547.302 1.054.849 1.132.048.007.096.01.143.01.49 0 .918-.36.989-.858l1.999-14.008c.078-.548-.302-1.055-.849-1.133z"/></svg>