<svg id="icons" enable-background="new 0 0 64 64" height="512" viewBox="0 0 64 64" width="512" xmlns="http://www.w3.org/2000/svg"><path d="m33.006 21.013c-3.105 0-5.847 1.584-7.462 3.985h-.653c-.014 0-.026.008-.04.008-3.785.086-6.841 3.187-6.841 6.992 0 3.859 3.141 7 7 7h15.984c2.754 0 4.994-2.239 4.994-4.992 0-2.427-1.741-4.45-4.039-4.897-.449-4.54-4.288-8.096-8.943-8.096zm10.982 12.993c0 1.649-1.343 2.992-2.994 2.992h-15.984c-2.757 0-5-2.243-5-5 0-2.592 1.99-4.705 4.519-4.951-.325.927-.509 1.918-.509 2.953 0 .553.447 1 1 1s1-.447 1-1c0-3.853 3.134-6.987 6.986-6.987 3.854 0 6.988 3.135 6.988 6.987 0 .002.001.004.001.006s-.001.004-.001.006c0 .553.447 1 1 1 1.652 0 2.994 1.342 2.994 2.994z"/><path d="m32.028 5c.552 0 1-.447 1-1s-.448-1-1-1h-.011c-.552 0-.994.447-.994 1s.453 1 1.005 1z"/><path d="m32.998 8v-1c0-.553-.447-1-1-1s-1 .447-1 1v1c0 .553.447 1 1 1s1-.447 1-1z"/><path d="m31.023 56c0 .553.452 1 1.005 1 .552 0 1-.447 1-1s-.448-1-1-1h-.011c-.551 0-.994.447-.994 1z"/><path d="m31.998 58c-.553 0-1 .447-1 1v1c0 .553.447 1 1 1s1-.447 1-1v-1c0-.553-.447-1-1-1z"/><path d="m13.646 10.614h-.011c-.552 0-.994.447-.994 1s.452 1 1.005 1c.552 0 1-.447 1-1s-.449-1-1-1z"/><path d="m13.615 13.614c-.553 0-1 .447-1 1v1c0 .553.447 1 1 1s1-.447 1-1v-1c0-.552-.447-1-1-1z"/><path d="m50.415 49.384c.552 0 1-.447 1-1s-.448-1-1-1h-.011c-.552 0-.994.447-.994 1s.452 1 1.005 1z"/><path d="m50.385 53.383c.553 0 1-.447 1-1v-.999c0-.553-.447-1-1-1s-1 .447-1 1v.999c0 .553.447 1 1 1z"/><path d="m6.03 28.998h-.01c-.552 0-.994.447-.994 1s.452 1 1.005 1c.552 0 1-.447 1-1s-.449-1-1.001-1z"/><path d="m5.998 31.998c-.553 0-1 .447-1 1v1c0 .553.447 1 1 1s1-.447 1-1v-1c0-.553-.447-1-1-1z"/><path d="m58.028 28.999h-.011c-.552 0-.994.447-.994 1s.452 1 1.005 1c.552 0 1-.447 1-1s-.448-1-1-1z"/><path d="m57.998 26c-2.967 0-5.43 2.167-5.908 5h-1.143c-.235-4.484-2.023-8.553-4.848-11.688l.814-.814c.98.697 2.176 1.112 3.468 1.112h.005c3.307 0 5.996-2.691 5.996-5.998 0-3.308-2.69-5.999-6.004-5.999-3.307 0-5.996 2.69-5.996 5.998 0 1.295.416 2.492 1.116 3.474l-.813.813c-3.135-2.824-7.203-4.612-11.688-4.848v-1.14c2.833-.479 5-2.941 5-5.908 0-3.31-2.691-6.002-6-6.002-3.309.001-6 2.693-6 6.001 0 2.966 2.167 5.431 5 5.909v1.141c-4.483.235-8.552 2.023-11.688 4.846l-.809-.811c.699-.98 1.115-2.177 1.115-3.471 0-3.309-2.691-6.001-6.001-6.001-3.308.002-5.999 2.694-5.999 6.001 0 3.308 2.69 5.999 5.998 5.999h.002c1.294 0 2.489-.415 3.471-1.114l.811.811c-2.823 3.136-4.612 7.204-4.848 11.688l-1.14.001c-.478-2.834-2.941-5-5.911-5-3.308 0-5.998 2.691-5.998 6 0 3.308 2.69 5.998 5.996 5.998h.004c2.968 0 5.432-2.167 5.91-4.999l1.139-.001c.234 4.484 2.022 8.553 4.846 11.688l-.81.811c-.981-.699-2.179-1.115-3.474-1.115-3.308 0-5.998 2.691-5.998 6 0 3.308 2.689 5.999 5.996 5.999h.002c3.31-.001 6.002-2.692 6.002-5.999 0-1.293-.415-2.489-1.113-3.47l.81-.811c3.135 2.824 7.204 4.612 11.688 4.848v1.142c-2.833.479-5 2.944-5 5.91 0 3.308 2.691 5.999 6 5.999s6-2.69 6-5.998c0-2.968-2.167-5.434-5-5.912v-1.141c4.484-.235 8.553-2.023 11.688-4.848l.813.813c-.698.981-1.114 2.177-1.114 3.47 0 3.308 2.69 5.999 5.998 5.999h.002c3.309 0 6-2.691 6-5.999 0-3.309-2.691-6.001-6.001-6.001-1.294.001-2.49.417-3.471 1.117l-.813-.812c2.824-3.135 4.612-7.203 4.848-11.688h1.144c.479 2.832 2.941 4.998 5.905 4.998h.006c3.307 0 5.997-2.69 5.997-5.998 0-3.309-2.69-6-6.002-6zm-10.444-15.215c.755-.756 1.76-1.172 2.831-1.172 2.204 0 3.998 1.794 3.998 3.999 0 2.204-1.793 3.998-3.996 3.998v1l-.008-1c-2.203 0-3.996-1.794-3.996-3.999 0-1.067.416-2.071 1.171-2.826zm-19.556-4.784c0-2.205 1.795-4 4-4.001 2.206 0 4 1.795 4 4.002 0 2.204-1.794 3.998-4 3.998s-4-1.794-4-3.999zm-14.385 11.613c-2.204 0-3.998-1.794-3.998-3.999 0-2.204 1.795-3.999 4-4.001 2.206 0 4 1.795 4 4.001 0 2.205-1.795 3.999-4.002 3.999zm-7.614 18.384-.003 1v-1c-2.203 0-3.996-1.794-3.996-3.998 0-2.206 1.794-4 4.002-4 2.204 0 3.998 1.794 3.998 4 0 2.204-1.794 3.998-4.001 3.998zm7.61 18.383c-2.203 0-3.996-1.794-3.996-3.999 0-2.206 1.794-4 4.002-4 2.204 0 3.998 1.794 3.998 4 0 2.204-1.796 3.998-4.004 3.999zm22.389 3.621c0 2.204-1.794 3.998-4 3.998s-4-1.794-4-3.999 1.795-4 4-4.001c2.206 0 4 1.795 4 4.002zm14.387-11.618c2.206 0 4 1.795 4 4.001 0 2.205-1.795 3.999-4.002 3.999-2.204 0-3.998-1.794-3.998-3.999 0-2.204 1.795-3.999 4-4.001zm-18.387 2.616c-9.374 0-17-7.626-17-17s7.626-17 17-17 17 7.626 17 17-7.626 17-17 17zm26.001-13.002-.003 1v-1c-2.203 0-3.996-1.794-3.996-3.999s1.794-3.999 4.002-3.999c2.204 0 3.998 1.794 3.998 4 0 2.204-1.794 3.998-4.001 3.998z"/><path d="m57.998 31.998c-.553 0-1 .447-1 1v1c0 .553.447 1 1 1s1-.447 1-1v-1c0-.553-.447-1-1-1z"/><path d="m13.644 47.381h-.011c-.552 0-.994.447-.994 1s.452 1 1.005 1c.552 0 1-.447 1-1s-.449-1-1-1z"/><path d="m13.611 50.379c-.553 0-1 .447-1 1v1.001c0 .553.447 1 1 1s1-.447 1-1v-1.001c0-.553-.447-1-1-1z"/><path d="m50.413 12.611c.552 0 1-.447 1-1s-.448-1-1-1h-.011c-.552 0-.994.447-.994 1s.452 1 1.005 1z"/><path d="m50.381 16.611c.553 0 1-.447 1-1v-1.002c0-.553-.447-1-1-1s-1 .447-1 1v1.002c0 .553.447 1 1 1z"/></svg>