<svg id="icons" enable-background="new 0 0 64 64" height="512" viewBox="0 0 64 64" width="512" xmlns="http://www.w3.org/2000/svg"><path d="m34.98 3.998h-31.974c-1.654 0-3 1.346-3 3v52.004c0 .553.447 1 1 1h35.974c.553 0 1-.447 1-1v-52.004c0-1.654-1.345-3-3-3zm-32.974 6h33.974v48.004h-33.974zm1-4h1.02c-.552 0-.994.447-.994 1s.452 1 1.005 1c.552 0 1-.447 1-1s-.448-1-1-1h2.987c-.552 0-.994.447-.994 1s.452 1 1.005 1c.552 0 1-.447 1-1s-.448-1-1-1h2.993c-.552 0-.994.447-.994 1s.452 1 1.005 1c.552 0 1-.447 1-1s-.448-1-1-1h24.941c.552 0 1 .448 1 1v1h-25.942-3.004-2.998-2.03v-1c0-.552.448-1 1-1z"/><path d="m4.99 40.996c0 .553.447 1 1 1h25.99c.553 0 1-.447 1-1v-11.996c0-.553-.447-1-1-1h-25.99c-.553 0-1 .447-1 1v3.588l-1.709 1.708c-.188.188-.293.441-.293.707s.105.52.293.707l1.709 1.707zm1.707-7.287c.188-.188.293-.441.293-.707v-3.002h23.99v9.996h-23.99v-2.993c0-.266-.105-.52-.293-.707l-1.294-1.293z"/><path d="m9.99 34.498h17.99c.553 0 1-.447 1-1s-.447-1-1-1h-17.99c-.553 0-1 .447-1 1s.448 1 1 1z"/><path d="m9.99 37.498h8.994c.553 0 1-.447 1-1s-.447-1-1-1h-8.994c-.553 0-1 .447-1 1s.448 1 1 1z"/><path d="m34.688 18.298-1.709-1.708v-3.588c0-.553-.447-1-1-1h-25.989c-.553 0-1 .447-1 1v11.996c0 .553.447 1 1 1h25.988c.553 0 1-.447 1-1v-3.579l1.709-1.707c.188-.188.293-.441.293-.707s-.105-.52-.292-.707zm-3.417 2c-.188.188-.293.441-.293.707v2.993h-23.988v-9.996h23.988v3.002c0 .266.105.52.293.707l1.294 1.294z"/><path d="m27.98 16.5h-17.99c-.553 0-1 .447-1 1s.447 1 1 1h17.99c.553 0 1-.447 1-1s-.447-1-1-1z"/><path d="m18.984 19.5h-8.994c-.553 0-1 .447-1 1s.447 1 1 1h8.994c.553 0 1-.447 1-1s-.447-1-1-1z"/><path d="m5.938 52.998h26c.55 0 .997-.444 1-.994l.043-7.001c.002-.266-.103-.521-.291-.711-.188-.188-.442-.295-.709-.295h-26.002c-.55 0-.997.444-1 .994l-.041 7.001c-.002.267.104.522.291.711s.442.295.709.295zm1.035-7.001h24.002l-.031 5.001h-24z"/><path d="m16.973 54.003h-10.993c-.553 0-1 .447-1 1s.447 1 1 1h10.992c.553 0 1-.447 1-1s-.447-1-.999-1z"/><path d="m32.005 54.003h-.011c-.552 0-.994.447-.994 1s.452 1 1.005 1c.552 0 1-.447 1-1s-.448-1-1-1z"/><path d="m29.005 54.003h-.011c-.552 0-.994.447-.994 1s.452 1 1.005 1c.552 0 1-.447 1-1s-.448-1-1-1z"/><path d="m52.994 36.049v-3.237c1.164-.413 2.004-1.514 2.004-2.817 0-1.654-1.346-3-3-3s-3 1.346-3 3c0 1.301.837 2.399 1.996 2.814v3.24c-6.15.511-11 5.67-11 11.949v11c0 .553.447 1 1 1h21.998c.553 0 1-.447 1-1l.002-11c0-6.279-4.849-11.438-11-11.949zm-.996-7.055c.552 0 1 .448 1 1s-.448 1-1 1-1-.448-1-1 .448-1 1-1zm-4.998 28.002h1.998v1.002h-1.998zm5.998 0v1.002h-2v-1.002zm3.998 0v1.002h-1.998v-1.002zm4.996 1.002h-2.996v-2.002c0-.553-.447-1-1-1h-11.996c-.553 0-1 .447-1 1v2.002h-3.006v-10c0-5.514 4.486-10 10-10s10 4.486 10 10z"/><path d="m53.998 47.997c0 1.654 1.346 3 3 3s3-1.346 3-3-1.346-3-3-3-3 1.346-3 3zm4 0c0 .552-.448 1-1 1s-1-.448-1-1 .448-1 1-1 1 .448 1 1z"/><path d="m46.998 44.997c-1.654 0-3 1.346-3 3s1.346 3 3 3 3-1.346 3-3-1.346-3-3-3zm0 4c-.552 0-1-.448-1-1s.448-1 1-1 1 .448 1 1-.448 1-1 1z"/><path d="m54.285 17.704c.195.195.451.293.707.293s.512-.098.707-.293l1.989-1.99c.003-.003.006-.003.009-.006.195-.195.293-.452.293-.708 0-.257-.098-.514-.293-.709-.003-.003-.006-.003-.009-.006l-1.989-1.991c-.391-.391-1.023-.391-1.414 0-.391.39-.391 1.023 0 1.414l1.29 1.291-1.29 1.291c-.39.391-.39 1.023 0 1.414z"/><path d="m48.287 17.706c.195.195.451.293.707.293s.512-.098.707-.293c.391-.391.391-1.023 0-1.414l-1.292-1.292 1.292-1.292c.391-.391.391-1.023 0-1.414s-1.023-.391-1.414 0l-1.991 1.992c-.003.003-.006.003-.009.006-.195.195-.293.452-.293.708 0 .257.098.514.293.709.003.003.006.003.009.006z"/><path d="m50.752 19.973c.081.021.163.03.243.03.448 0 .855-.304.969-.758l1.999-8.002c.134-.536-.192-1.078-.729-1.212-.537-.137-1.079.192-1.212.728l-1.999 8.002c-.133.536.193 1.078.729 1.212z"/><path d="m51.994 25c5.514 0 10-4.486 10-10s-4.486-10-10-10-10 4.486-10 10 4.486 10 10 10zm0-18c4.411 0 8 3.589 8 8s-3.589 8-8 8-8-3.589-8-8 3.589-8 8-8z"/></svg>