<svg id="icons" enable-background="new 0 0 64 64" height="512" viewBox="0 0 64 64" width="512" xmlns="http://www.w3.org/2000/svg"><path d="m4.292 55.704 8.003 8.002c.059.059.13.09.197.131.043.026.078.063.125.083.123.052.254.079.385.079.002 0 .003-.001.005-.001h45.995c.553 0 1-.447 1-1v-33.993c0-.13-.026-.26-.077-.382s-.124-.233-.217-.325l-7.728-7.726v-15.57-2c0-1.655-1.346-3.001-3-3.001h-33.994c-1.654 0-3 1.346-3 3.001v2 15.001h-6.988c-.13 0-.26.026-.382.077-.245.102-.439.296-.541.541-.05.121-.075.249-.076.377 0 .002-.001.003-.001.005v33.993c0 .13.026.26.077.382.051.123.124.234.217.326zm45.688-49.702v22.003h-32.994v-22.003zm-34.994 22.003h-1v-22.003h1zm-2.982 1.416v31.166l-6.006-6.005v-31.165zm45.998 32.577h-43.998v-31.993h43.998zm-1.414-33.993h-4.608v-4.606zm-41.602-26.004h33.994c.552 0 1 .449 1 1.001v1h-27.963-3-3-2.03v-1c-.001-.552.448-1.001.999-1.001zm-3 24.575-4.574-4.573h4.574z"/><path d="m17.017 3.002c0-.552-.448-1-1-1h-.011c-.552 0-.994.448-.994 1s.452 1 1.005 1c.551 0 1-.448 1-1z"/><path d="m20.017 3.002c0-.552-.448-1-1-1h-.011c-.552 0-.994.448-.994 1s.452 1 1.005 1c.551 0 1-.448 1-1z"/><path d="m23.017 3.002c0-.552-.448-1-1-1h-.011c-.552 0-.994.448-.994 1s.452 1 1.005 1c.551 0 1-.448 1-1z"/><path d="m19.986 10.002h23.006c.553 0 1-.448 1-1s-.447-1-1-1h-23.006c-.553 0-1 .448-1 1s.448 1 1 1z"/><path d="m39.992 13.002c0-.552-.447-1-1-1h-17.006c-.553 0-1 .448-1 1s.447 1 1 1h17.006c.553 0 1-.448 1-1z"/><path d="m42.992 12.002c-.553 0-1 .448-1 1s.447 1 1 1h1c.553 0 1-.448 1-1s-.447-1-1-1z"/><path d="m22.986 20.998c0 .552.447 1 1 1h22.006c.553 0 1-.448 1-1s-.447-1-1-1h-22.006c-.552 0-1 .448-1 1z"/><path d="m23.986 15.996c-.553 0-1 .448-1 1s.447 1 1 1h7.992c.553 0 1-.448 1-1s-.447-1-1-1z"/><path d="m40.992 23.996h-17.006c-.553 0-1 .448-1 1s.447 1 1 1h17.006c.553 0 1-.448 1-1s-.447-1-1-1z"/><path d="m35.982 58.995c7.168 0 13-5.832 13-13s-5.832-13-13-13-13 5.832-13 13 5.832 13 13 13zm0-24c6.065 0 11 4.935 11 11s-4.935 11-11 11-11-4.935-11-11 4.935-11 11-11z"/><path d="m30.984 49.996c.256 0 .512-.098.707-.293.391-.391.391-1.023 0-1.414l-2.293-2.293 2.293-2.294c.391-.391.391-1.023 0-1.414s-1.023-.391-1.414 0l-3 3.001c-.391.391-.391 1.023 0 1.414l3 3c.196.195.452.293.707.293z"/><path d="m40.285 49.703c.195.195.451.293.707.293s.512-.098.707-.293l3-3c.391-.391.391-1.023 0-1.414l-3-3.001c-.391-.391-1.023-.391-1.414 0s-.391 1.023 0 1.414l2.293 2.294-2.293 2.293c-.39.391-.39 1.024 0 1.414z"/><path d="m33.615 51.927c.121.049.247.071.371.071.396 0 .772-.237.929-.629l4.002-10.004c.205-.513-.045-1.095-.558-1.3-.508-.205-1.095.044-1.3.558l-4.002 10.004c-.204.513.046 1.095.558 1.3z"/></svg>