<svg id="icons" enable-background="new 0 0 64 64" height="512" viewBox="0 0 64 64" width="512" xmlns="http://www.w3.org/2000/svg"><path d="m1 53h48.002c.099 0 .199-.015.298-.045.003-.001.004-.003.007-.004.008-.002.015-.007.022-.009.014-.005.026-.011.04-.017.01-.004.021-.006.03-.01.023-.01.041-.03.063-.042.055-.029.107-.057.156-.095.011-.008.024-.014.034-.022.002-.002.005-.002.007-.004.009-.008.012-.019.02-.026.018-.016.033-.032.05-.05.008-.008.019-.011.025-.019l13.998-16.001c.004-.004.005-.01.008-.015.057-.066.106-.139.145-.22.011-.022.013-.046.021-.068.014-.034.022-.068.032-.104.022-.086.032-.171.032-.259 0-.028.004-.056.001-.084-.011-.113-.038-.224-.087-.328-.01-.021-.026-.04-.038-.062-.03-.055-.058-.111-.099-.16l-5.006-5.999c-.026-.031-.065-.045-.095-.073-.04-.039-.069-.086-.117-.118-.024-.016-.052-.018-.076-.031-.052-.029-.104-.047-.161-.066-.08-.027-.158-.047-.24-.053-.027-.001-.051-.016-.078-.016h-7.99v-13-2c0-1.654-1.346-3-3-3h-44.004c-1.654 0-3 1.346-3 3v2 36c0 .553.447 1 1 1zm1-36h1v34h-1zm37.914 14.668 2.224 3.331h-5.003zm12.716 5.331-3.629 11.643-3.633-11.643zm-6.492-2 2.855-3.438 2.863 3.438zm8.589 2h6.07l-9.432 10.78zm-3.598-5.999h4.995l-2.223 3.329zm-7.033 3.327-2.222-3.327h4.985zm-.823 2.672 3.363 10.78-9.435-10.78zm12.587-2 2.224-3.331 2.779 3.331zm-15.856-5.999c-.027 0-.051.015-.078.018-.083.006-.161.026-.241.054-.056.019-.108.037-.16.065-.024.014-.052.016-.076.032-.048.032-.077.08-.117.118-.029.028-.068.042-.095.073l-5.006 5.999c-.041.049-.068.105-.099.16-.012.021-.028.04-.038.062-.049.104-.076.215-.087.328-.003.028.001.056.001.084 0 .088.01.173.032.259.01.035.019.069.032.104.008.022.01.046.021.068.038.081.088.153.145.22.003.005.004.011.008.015l12.552 14.341h-41.798v-34h43.004v12zm-37.004-16h1.02c-.552 0-.994.448-.994 1s.452 1 1.005 1c.552 0 1-.448 1-1s-.448-1-1-1h2.989c-.552 0-.994.448-.994 1s.452 1 1.005 1c.552 0 1-.448 1-1s-.448-1-1-1h2.989c-.552 0-.994.448-.994 1s.452 1 1.005 1c.552 0 1-.448 1-1s-.448-1-1-1h36.974c.552 0 1 .449 1 1v1h-37.975-3-3-2.03v-1c0-.551.448-1 1-1z"/><path d="m8 21h17c.553 0 1-.448 1-1s-.447-1-1-1h-17c-.553 0-1 .448-1 1s.447 1 1 1z"/><path d="m22 24c0-.552-.447-1-1-1h-11c-.553 0-1 .448-1 1s.447 1 1 1h11c.553 0 1-.448 1-1z"/><path d="m20 43.012h-10c-.553 0-1 .447-1 1s.447 1 1 1h10c.553 0 1-.447 1-1s-.447-1-1-1z"/><path d="m24 24c0 .552.447 1 1 1h6.004c.553 0 1-.448 1-1s-.447-1-1-1h-6.004c-.553 0-1 .448-1 1z"/><path d="m14 47h-6c-.553 0-1 .447-1 1s.447 1 1 1h6c.553 0 1-.447 1-1s-.447-1-1-1z"/><path d="m12 27c-.553 0-1 .448-1 1s.447 1 1 1h4c.553 0 1-.448 1-1s-.447-1-1-1z"/><path d="m34.004 27h-14.004c-.553 0-1 .448-1 1s.447 1 1 1h14.004c.553 0 1-.448 1-1s-.447-1-1-1z"/><path d="m33.004 31h-21.004c-.553 0-1 .448-1 1s.447 1 1 1h21.004c.553 0 1-.448 1-1s-.447-1-1-1z"/><path d="m24 36c0-.553-.447-1-1-1h-11c-.553 0-1 .447-1 1s.447 1 1 1h11c.553 0 1-.447 1-1z"/><path d="m32.004 39h-14.004c-.553 0-1 .447-1 1s.447 1 1 1h14.004c.553 0 1-.447 1-1s-.447-1-1-1z"/><path d="m12 39c-.553 0-1 .447-1 1s.447 1 1 1h2c.553 0 1-.447 1-1s-.447-1-1-1z"/></svg>